<?xml version="1.0" encoding="UTF-8" standalone="no"?>
<!-- Created with Inkscape (http://www.inkscape.org/) -->

<svg
   xmlns:dc="http://purl.org/dc/elements/1.1/"
   xmlns:cc="http://creativecommons.org/ns#"
   xmlns:rdf="http://www.w3.org/1999/02/22-rdf-syntax-ns#"
   xmlns:svg="http://www.w3.org/2000/svg"
   xmlns="http://www.w3.org/2000/svg"
   xmlns:xlink="http://www.w3.org/1999/xlink"
   xmlns:sodipodi="http://sodipodi.sourceforge.net/DTD/sodipodi-0.dtd"
   xmlns:inkscape="http://www.inkscape.org/namespaces/inkscape"
   width="220"
   height="270"
   id="svg2446"
   sodipodi:version="0.32"
   inkscape:version="0.48.1 r9760"
   version="1.0"
   sodipodi:docname="flocage.svg"
   inkscape:output_extension="org.inkscape.output.svg.inkscape"
   inkscape:export-filename="/home/ericlemerdy/flocage-2011.png"
   inkscape:export-xdpi="300"
   inkscape:export-ydpi="300">
  <defs
     id="defs2448">
    <linearGradient
       id="linearGradient8164-760">
      <stop
         id="stop3865"
         offset="0"
         style="stop-color:#3d3d3d;stop-opacity:1;" />
      <stop
         id="stop3867"
         offset="1"
         style="stop-color:#333333;stop-opacity:1;" />
    </linearGradient>
    <linearGradient
       id="linearGradient8178-190">
      <stop
         style="stop-color:#f2f2f2;stop-opacity:1;"
         offset="0"
         id="stop3859" />
      <stop
         style="stop-color:#dcdcdc;stop-opacity:1;"
         offset="1"
         id="stop3861" />
    </linearGradient>
    <linearGradient
       id="linearGradient8154-514">
      <stop
         id="stop3853"
         offset="0"
         style="stop-color:#5e5e5e;stop-opacity:1;" />
      <stop
         id="stop3855"
         offset="1"
         style="stop-color:#464646;stop-opacity:1;" />
    </linearGradient>
    <filter
       id="filter3651"
       inkscape:collect="always">
      <feGaussianBlur
         id="feGaussianBlur3653"
         stdDeviation="1.139826"
         inkscape:collect="always" />
    </filter>
    <filter
       id="filter3639"
       inkscape:collect="always">
      <feGaussianBlur
         id="feGaussianBlur3641"
         stdDeviation="1.1345707"
         inkscape:collect="always" />
    </filter>
    <filter
       id="filter3635"
       inkscape:collect="always">
      <feGaussianBlur
         id="feGaussianBlur3637"
         stdDeviation="1.2339038"
         inkscape:collect="always" />
    </filter>
    <linearGradient
       id="linearGradient8154">
      <stop
         id="stop8156"
         offset="0"
         style="stop-color:#3465a4;stop-opacity:1;" />
      <stop
         id="stop8158"
         offset="1"
         style="stop-color:#274c7c;stop-opacity:1;" />
    </linearGradient>
    <linearGradient
       id="linearGradient8164">
      <stop
         id="stop8166"
         offset="0"
         style="stop-color:#cd0000;stop-opacity:1;" />
      <stop
         id="stop8168"
         offset="1"
         style="stop-color:#aa0000;stop-opacity:1;" />
    </linearGradient>
    <linearGradient
       id="linearGradient8178">
      <stop
         style="stop-color:#f0f0ff;stop-opacity:1;"
         offset="0"
         id="stop8180" />
      <stop
         style="stop-color:#d7d7ff;stop-opacity:1;"
         offset="1"
         id="stop8182" />
    </linearGradient>
    <linearGradient
       inkscape:collect="always"
       xlink:href="#linearGradient8164"
       id="linearGradient8679"
       gradientUnits="userSpaceOnUse"
       gradientTransform="matrix(0.3339415,-7.5935501e-3,7.5935501e-3,0.3339415,212.82678,515.61519)"
       x1="530.68823"
       y1="575.30054"
       x2="556.8103"
       y2="662.04608" />
    <linearGradient
       inkscape:collect="always"
       xlink:href="#linearGradient8178"
       id="linearGradient8683"
       gradientUnits="userSpaceOnUse"
       gradientTransform="matrix(0.33082,4.6182053e-2,-4.6182053e-2,0.33082,200.67341,498.99954)"
       x1="530.68823"
       y1="575.30054"
       x2="556.8103"
       y2="662.04608" />
    <linearGradient
       inkscape:collect="always"
       xlink:href="#linearGradient8154"
       id="linearGradient8687"
       gradientUnits="userSpaceOnUse"
       gradientTransform="matrix(0.333021,2.5913459e-2,-2.5913459e-2,0.333021,224.14816,506.45612)"
       x1="285.32883"
       y1="574.29041"
       x2="310.02237"
       y2="661.03595" />
    <linearGradient
       inkscape:collect="always"
       xlink:href="#linearGradient8164-760"
       id="linearGradient8707"
       gradientUnits="userSpaceOnUse"
       gradientTransform="matrix(0.3339415,-7.5935501e-3,7.5935501e-3,0.3339415,431.25981,689.76005)"
       x1="530.68823"
       y1="575.30054"
       x2="556.8103"
       y2="662.04608" />
    <linearGradient
       inkscape:collect="always"
       xlink:href="#linearGradient8178-190"
       id="linearGradient8710"
       gradientUnits="userSpaceOnUse"
       gradientTransform="matrix(0.33082,4.6182053e-2,-4.6182053e-2,0.33082,419.10644,673.14439)"
       x1="530.68823"
       y1="575.30054"
       x2="556.8103"
       y2="662.04608" />
    <linearGradient
       inkscape:collect="always"
       xlink:href="#linearGradient8154-514"
       id="linearGradient8713"
       gradientUnits="userSpaceOnUse"
       gradientTransform="matrix(0.333021,2.5913459e-2,-2.5913459e-2,0.333021,442.5812,680.60097)"
       x1="285.32883"
       y1="574.29041"
       x2="310.02237"
       y2="661.03595" />
    <linearGradient
       inkscape:collect="always"
       xlink:href="#linearGradient8164-760"
       id="linearGradient8729"
       gradientUnits="userSpaceOnUse"
       gradientTransform="matrix(0.3339415,-7.5935501e-3,7.5935501e-3,0.3339415,431.25985,515.61524)"
       x1="530.68823"
       y1="575.30054"
       x2="556.8103"
       y2="662.04608" />
    <linearGradient
       inkscape:collect="always"
       xlink:href="#linearGradient8178-190"
       id="linearGradient8733"
       gradientUnits="userSpaceOnUse"
       gradientTransform="matrix(0.33082,4.6182053e-2,-4.6182053e-2,0.33082,419.10647,498.99958)"
       x1="530.68823"
       y1="575.30054"
       x2="556.8103"
       y2="662.04608" />
    <linearGradient
       inkscape:collect="always"
       xlink:href="#linearGradient8154-514"
       id="linearGradient8737"
       gradientUnits="userSpaceOnUse"
       gradientTransform="matrix(0.333021,2.5913459e-2,-2.5913459e-2,0.333021,442.58123,506.45617)"
       x1="285.32883"
       y1="574.29041"
       x2="310.02237"
       y2="661.03595" />
    <linearGradient
       inkscape:collect="always"
       xlink:href="#linearGradient8164"
       id="linearGradient8746"
       gradientUnits="userSpaceOnUse"
       gradientTransform="matrix(0.3339415,-7.5935501e-3,7.5935501e-3,0.3339415,212.82676,689.76002)"
       x1="530.68823"
       y1="575.30054"
       x2="556.8103"
       y2="662.04608" />
    <linearGradient
       inkscape:collect="always"
       xlink:href="#linearGradient8178"
       id="linearGradient8749"
       gradientUnits="userSpaceOnUse"
       gradientTransform="matrix(0.33082,4.6182053e-2,-4.6182053e-2,0.33082,200.67339,673.14436)"
       x1="530.68823"
       y1="575.30054"
       x2="556.8103"
       y2="662.04608" />
    <linearGradient
       inkscape:collect="always"
       xlink:href="#linearGradient8154"
       id="linearGradient8752"
       gradientUnits="userSpaceOnUse"
       gradientTransform="matrix(0.333021,2.5913459e-2,-2.5913459e-2,0.333021,224.14814,680.60095)"
       x1="285.32883"
       y1="574.29041"
       x2="310.02237"
       y2="661.03595" />
    <linearGradient
       inkscape:collect="always"
       xlink:href="#linearGradient8154"
       id="linearGradient8836"
       gradientUnits="userSpaceOnUse"
       gradientTransform="matrix(0.3715991,-8.9015021e-2,8.9015021e-2,0.3715991,110.10703,219.24271)"
       x1="285.32883"
       y1="574.29041"
       x2="310.02237"
       y2="661.03595" />
    <linearGradient
       inkscape:collect="always"
       xlink:href="#linearGradient8178"
       id="linearGradient8838"
       gradientUnits="userSpaceOnUse"
       gradientTransform="matrix(0.3763378,-6.6178866e-2,6.6178866e-2,0.3763378,81.931197,219.38948)"
       x1="530.68823"
       y1="575.30054"
       x2="556.8103"
       y2="662.04608" />
    <linearGradient
       inkscape:collect="always"
       xlink:href="#linearGradient8164"
       id="linearGradient8840"
       gradientUnits="userSpaceOnUse"
       gradientTransform="matrix(0.3608068,-0.1258098,0.1258098,0.3608068,101.00815,233.19696)"
       x1="530.68823"
       y1="575.30054"
       x2="556.8103"
       y2="662.04608" />
  </defs>
  <sodipodi:namedview
     id="base"
     pagecolor="#ffffff"
     bordercolor="#666666"
     borderopacity="1.0"
     inkscape:pageopacity="0.0"
     inkscape:pageshadow="2"
     inkscape:zoom="1.4"
     inkscape:cx="47.28514"
     inkscape:cy="75.079742"
     inkscape:document-units="px"
     inkscape:current-layer="layer1"
     showgrid="false"
     inkscape:window-width="1400"
     inkscape:window-height="1026"
     inkscape:window-x="0"
     inkscape:window-y="24"
     inkscape:window-maximized="1" />
  <metadata
     id="metadata2451">
    <rdf:RDF>
      <cc:Work
         rdf:about="">
        <dc:format>image/svg+xml</dc:format>
        <dc:type
           rdf:resource="http://purl.org/dc/dcmitype/StillImage" />
        <dc:title></dc:title>
      </cc:Work>
    </rdf:RDF>
  </metadata>
  <g
     inkscape:label="Calque 1"
     inkscape:groupmode="layer"
     id="layer1"
     transform="translate(-211.89722,-257.71501)">
    <path
       inkscape:connector-curvature="0"
       style="font-size:40px;font-style:normal;font-variant:normal;font-weight:normal;font-stretch:normal;text-align:start;line-height:125%;writing-mode:lr-tb;text-anchor:start;fill:#980101;fill-opacity:1;stroke:none;font-family:Bitstream Vera Sans;-inkscape-font-specification:Bitstream Vera Sans"
       d="m 313.59474,475.67935 c -4.70855,-0.19297 -10.42745,3.47582 -9.90024,8.61572 0.43956,2.17455 5.66508,1.10431 2.15394,0.55709 3.39157,-1.89907 7.21314,-7.5209 11.7731,-3.04792 3.38892,-1.59745 -0.71255,0.58983 1.24528,2.72087 -1.44827,2.9725 -0.53079,2.6199 2.39154,1.93682 -5.60315,1.20911 -8.78328,6.27823 -13.2199,9.4631 -2.29098,2.33284 -6.51331,3.72885 -5.48833,7.61507 -0.84848,2.76799 2.30997,1.5478 3.98338,1.80567 4.88154,0.0125 9.76311,0.0218 14.64468,0.0345 4.03434,0.15655 2.21554,-7.45575 -1.8489,-4.582 -1.60196,0.47078 -2.15061,-0.2739 -5.2957,-0.0125 -2.43559,-0.038 -6.61758,0.56876 -2.11277,-2.01236 1.67012,-1.56791 6.46021,-5.27448 6.02404,-5.58305 -2.00968,1.27668 -7.51193,3.18801 -2.48669,0.70139 5.23255,-1.45391 9.89096,-7.11865 7.2921,-12.63814 -1.54205,-3.53364 -5.35095,-5.69412 -9.15553,-5.57426 z m 27.71592,0.065 c -7.08889,-0.0187 -10.43398,8.04524 -9.97534,14.17025 -0.10737,3.91227 -0.043,8.03572 2.22628,11.41763 2.65884,-0.69799 6.32044,-0.39045 3.15981,-3.59869 -1.26264,-3.83754 -0.86677,-8.05306 -0.51463,-12.01674 0.39481,-5.84474 7.39362,-6.43174 9.85286,-2.85704 3.57691,-1.87822 1.45773,0.51691 1.58463,-0.0728 2.13091,-0.87207 -4.28819,0.98361 -1.20768,3.12614 2.45958,-2.07318 5.96839,-1.73474 1.68002,0.36157 -2.32006,0.18425 -1.41509,4.94443 -1.08726,6.11286 -1.24164,3.70931 -0.75741,9.35831 -5.06614,9.96109 -2.30461,0.9293 -8.94339,2.00203 -3.20914,3.41319 5.50701,1.733 10.79882,-2.59537 11.91191,-7.92423 0.90282,-4.51259 1.00659,-9.36294 -0.0156,-13.86734 -1.34422,-4.17814 -4.41331,-8.53262 -9.33954,-8.22576 z m 29.8259,0.07 c -2.50739,1.56315 -6.54469,4.172 -10.63446,5.51821 2.32638,-1.63258 10.58939,-5.97626 4.00179,-3.79608 -2.78079,0.33527 -8.19508,2.19356 -4.35034,5.39897 1.86869,0.96186 5.49004,-1.96769 6.38993,-0.54607 1.41232,0.32404 5.91271,-2.65314 4.59143,-5.87225 5.6e-4,-0.23436 0.001,-0.46854 0.002,-0.70278 z m -27.397,1.18726 c 0.37209,1.42275 -7.23763,2.4129 -2.18208,0.82364 l 1.07605,-0.40387 z m 27.38499,3.92668 c -2.77926,1.16523 -5.54735,2.44564 -4.5914,5.86677 -1.9404,4.60703 7.00439,-0.65491 2.34147,2.09855 -3.42154,0.19857 -2.11747,3.39685 -2.36002,5.80085 -0.006,2.07143 -0.009,4.1429 -0.0156,6.21433 -2.50739,0.31286 -5.76266,-0.92124 -7.5284,1.3206 -0.89896,4.18414 4.27708,3.11944 6.85612,3.25542 3.75391,-0.0825 7.5362,0.21134 11.27047,-0.13601 4.60239,-3.16149 -1.73258,-5.20849 -4.78135,-4.42622 -2.38494,0.53356 -0.7659,-2.9181 -1.22918,-4.29725 0.0125,-5.23227 0.0249,-10.46461 0.037,-15.69691 z m -53.16665,9.92446 c -1.74796,1.20882 -9.2217,4.05718 -3.91591,1.52894 1.30447,-0.51181 2.60979,-1.02147 3.91591,-1.52894 z m 31.82761,0.50393 c -0.31214,0.10675 -1.406,0.55671 0,0 z m -14.85401,5.3295 c -1.86854,1.34179 -1.19554,0.35186 0,0 z"
       id="path2508"
       sodipodi:nodetypes="cccccccccccccccccccccccccccccccccccccccccccccccccccccccccccccccc" />
    <path
       inkscape:connector-curvature="0"
       sodipodi:nodetypes="ccccccccccccscsccccccccccsccccccsscsccccsccccscccccscccccscccscsscccsccscccccscscccssscscsccsssccscsccscccsccccsccccsccscccscscscccccssssscccsccccscsccsccccsccccccccsssscscsscccccsccscccccsccccsccccccsscscccccccsccccccccccccsc"
       style="fill:#990000;fill-opacity:1;fill-rule:nonzero;stroke:none"
       d="m 353.39743,519.68132 c 1.62795,-0.0218 3.26368,-0.0672 4.86268,-0.13664 1.03693,-1.08004 1.92913,-2.20265 2.83706,-3.32284 0.20075,0.53188 0.41189,1.05259 0.65503,1.57392 -0.84548,0.56107 -1.68359,1.12563 -2.52693,1.68814 5.74679,-0.28386 11.26808,-0.85246 16.50988,-1.70601 -0.0125,-0.0635 -0.0249,-0.12792 -0.037,-0.19141 0.25211,-0.89927 0.55488,-1.78201 0.87481,-2.67328 0.6231,0.32957 1.24359,0.65285 1.8667,0.98233 -0.69255,0.58856 -1.35618,1.17681 -2.02562,1.77738 4.43773,-0.74574 8.65969,-1.68263 12.60567,-2.7891 -1.37998,-1.03901 -1.37824,-0.75002 5.70452,-1.78412 1.82748,-0.63528 3.57843,-1.31027 5.24541,-2.0222 3.08443,-1.3173 5.31892,-2.40483 7.7945,-3.97458 -0.009,-0.0445 -3.67224,-0.0887 -3.06236,-0.63527 0.0358,-0.0321 3.69739,0.18425 3.74753,0.2051 1.82091,-1.16192 3.44503,-2.40577 4.87288,-3.68556 -0.27949,-0.10831 -0.55802,-0.23218 -0.82485,-0.32475 0.4086,-0.0124 0.80727,-0.028 1.21561,-0.0401 2.02211,-1.87949 3.59689,-3.87713 4.64192,-5.96051 -0.24931,-0.028 -0.50172,-0.0566 -0.75162,-0.0859 0.31632,-0.12045 0.63926,-0.24463 0.96289,-0.37246 0.51208,-1.10948 0.88268,-2.24087 1.08418,-3.39548 -0.32201,-0.0187 -0.6435,-0.0414 -0.966,-0.0591 0.35126,-0.12418 0.6752,-0.21289 1.03459,-0.34943 0.085,-0.60222 0.13446,-1.21157 0.12979,-1.82415 -0.0156,-1.99111 -0.51906,-3.9133 -1.43622,-5.75989 -0.39338,-0.0445 -0.83957,-0.11298 -1.18126,-0.1522 -0.86151,-0.0436 -1.73986,-0.0872 -2.61143,-0.10925 0.58339,-0.21382 1.16572,-0.42973 1.74768,-0.64669 0.54539,0.0398 1.06964,0.0865 1.61036,0.14659 -1.04194,-1.83657 -2.46659,-3.5925 -4.29348,-5.24236 -0.29101,0.12481 -0.57405,0.26549 -0.85544,0.39503 -0.15438,0.0585 -0.31237,0.11049 -0.46366,0.17398 -0.87014,0.36571 -2.29403,0.75486 -3.74607,1.2487 0.8965,-0.39549 1.68783,-0.75074 3.10155,-1.36003 0.49229,-0.21226 1.02408,-0.51488 1.53174,-0.83565 -0.98439,-0.85454 -2.06374,-1.67942 -3.23644,-2.4748 -0.066,0.33433 -0.18394,0.67318 -0.27918,0.93889 -0.72771,1.04331 -1.49386,1.87131 -2.55563,2.67163 4.44844,3.3436 6.91767,7.12238 6.94618,11.08202 0.0125,1.83116 -0.51958,3.63869 -1.49893,5.39126 0.76773,0.0563 1.52891,0.0884 2.28995,0.16153 -0.0479,0.0156 -0.0949,0.0336 -0.14286,0.0498 -0.71875,-0.0797 -1.42567,-0.14068 -2.14725,-0.21133 -2.45572,4.3946 -7.82077,8.54543 -15.72182,11.81471 -9.98782,4.13279 -10.08608,5.92578 -15.06839,5.39954 1.9714,-1.09395 -17.42465,2.94259 -25.82234,2.52914 -0.97366,1.31833 -1.93664,2.61891 -3.01166,3.90066 0.13196,-0.001 0.26113,-0.003 0.39334,-0.006 z m -4.25566,0.009 c 0.0797,-0.51949 0.18114,-1.02068 0.31093,-1.5388 0.14068,-0.56173 0.5494,-1.6569 0.41271,-2.28349 -2.0513,-0.0218 -4.08921,-0.0812 -6.08094,-0.18301 -0.28883,0.0822 -0.56979,0.16652 -0.85647,0.25118 -0.0473,-0.10303 -0.0977,-0.20667 -0.14535,-0.30969 -4.43603,-0.25771 -8.69381,-0.71439 -12.74106,-1.34145 -0.0473,0.0806 -0.0934,0.16154 -0.14131,0.24152 -0.009,-0.0881 -0.028,-0.17491 -0.0377,-0.26331 -2.58672,-0.40467 -5.05994,-0.89646 -7.4489,-1.43575 0.0218,0.31311 0.0495,0.71209 0.0797,1.12598 -0.42724,0.14348 -0.86161,0.27513 -1.2844,0.42468 -1.1055,0.39108 -2.1269,0.87101 -3.31777,1.12315 0.14037,-0.18643 0.20511,-0.40813 0.3175,-0.60372 0.21195,-0.36935 0.40804,-0.72223 0.63587,-1.08747 0.15499,-0.24837 0.30595,-0.50073 0.45951,-0.74947 0.28136,-0.26144 0.56864,-0.51847 0.85271,-0.77866 -1.86125,-0.46506 -3.66452,-0.96952 -5.37526,-1.51123 -0.14753,0.26642 -0.31158,0.53293 -0.45917,0.79739 -0.28417,0.46419 -1.21257,2.03446 -1.69636,2.80413 2.23589,0.69892 4.58218,1.32502 7.02306,1.89699 0.92065,-0.28168 1.85363,-0.56282 2.78349,-0.82828 0.07,-0.0218 0.14442,-0.0311 0.21414,-0.0507 0.0507,0.52796 0.0956,1.05252 0.15437,1.58061 7.99725,1.63526 16.9037,2.59543 26.34068,2.71946 z m -37.41193,-5.59381 c 0.49979,-1.2708 1.01969,-2.54362 1.54609,-3.80925 -1.21051,-0.40984 -2.39245,-0.82575 -3.51385,-1.27216 -0.8091,-0.32208 -1.57332,-0.66189 -2.33176,-1.00015 -0.61575,0.30938 -1.20985,0.61841 -1.81715,0.93534 -1.35025,0.70469 -2.00573,1.05131 -2.6363,1.4018 0.45077,-0.88775 0.87515,-1.77581 1.26815,-2.67851 0.39413,-0.20573 0.78125,-0.40862 1.17571,-0.61507 -0.20666,-0.1024 -0.40781,-0.19982 -0.61015,-0.30377 -0.009,0.003 -0.028,-0.003 -0.0358,4.6e-4 -0.0352,0.0125 -0.0517,-0.006 -0.0716,9.7e-4 0.0125,-0.006 0.056,-0.0187 0.0713,-0.0249 -7.91564,-4.06767 -12.40348,-9.0884 -12.4422,-14.46204 -0.003,-0.63941 0.0812,-1.26479 0.20075,-1.89701 -0.0607,-0.009 -0.11827,-0.0125 -0.17897,-0.0218 0.0691,-0.0741 0.14442,-0.14348 0.21289,-0.21849 0.89796,-4.19307 4.49152,-8.18433 10.28699,-11.67061 -0.44707,-0.0451 -0.91826,-0.028 -1.43019,0.043 -0.0685,0.009 -0.14721,0.0156 -0.21444,0.028 0.36238,-0.10644 0.71943,-0.21444 1.07036,-0.34992 0.9181,-0.35404 1.7718,-0.65626 2.60365,-0.96974 0.003,0.0218 -0.006,0.0495 5.3e-4,0.0719 1.43884,-0.76992 2.97519,-1.51157 4.63311,-2.21965 2.31015,-0.98663 4.84456,-1.90402 7.52612,-2.73768 -0.14753,-0.0909 -0.28541,-0.19016 -0.43135,-0.30595 -0.21725,-0.17211 -0.38046,-0.35413 -0.54038,-0.54436 0.68203,-0.62587 1.37771,-1.28505 1.98852,-1.96872 0.038,-0.0218 0.0688,-0.0523 0.10676,-0.0735 0.0654,-0.0361 0.19919,-0.0834 0.2851,-0.12357 2.96628,-0.31419 5.89742,-0.7415 8.75178,-1.38714 1.54429,-0.63776 3.17977,-1.21763 4.74316,-1.83747 -1.00711,1.14639 -2.20816,2.29101 -3.37429,3.21008 -0.0993,0.0781 -0.21942,0.14286 -0.32026,0.22005 1.7967,-0.34953 3.65042,-0.65619 5.53639,-0.93681 0.17149,-0.12076 0.32941,-0.24339 0.49804,-0.3663 -0.0523,0.10302 -0.10551,0.2132 -0.14068,0.31361 5.94066,-0.86746 12.26664,-1.38587 18.87189,-1.47357 0.58255,-0.006 1.17369,0.002 1.75238,6.8e-4 0.0187,-0.071 0.0482,-0.14566 0.07,-0.21662 0.67138,-0.33381 1.48182,-0.7683 2.7792,-1.4277 1.17017,-0.66166 2.30038,-1.35595 3.38241,-2.08313 -2.62504,-0.0965 -5.30467,-0.12139 -8.01138,-0.0853 -0.63717,0.009 -1.26224,0.0333 -1.89505,0.0492 -2.98592,1.14244 -5.92631,2.34085 -8.59147,3.78292 -0.43698,-0.0125 -0.75504,-0.10582 -0.8603,-0.27638 -0.52802,-0.85629 1.15968,-2.3297 2.05139,-3.16853 -13.60177,0.97661 -25.88328,3.65634 -35.60063,7.5467 -0.0486,0.65208 0.0187,1.30503 0.22845,1.91528 -0.96071,0.6819 -2.10421,1.60706 -2.7721,2.41078 -0.0401,0.0482 -0.0703,0.0956 -0.10614,0.14535 -0.2686,0.0457 -0.54924,0.0775 -0.82177,0.10676 -0.48525,0.0523 -0.97571,0.0125 -1.4661,0.0187 -0.34099,-0.0949 -0.74595,-0.12418 -1.03911,-0.27389 -0.0423,-0.0218 -0.0675,-0.0473 -0.10769,-0.0707 0.12045,-0.55115 0.20293,-1.1079 0.31,-1.65867 -2.88493,1.47699 -5.43632,3.10233 -7.61834,4.82508 -0.21134,0.86674 -0.42279,1.74889 -0.73229,2.59948 -2.02817,0.86118 -3.55568,1.72431 -4.73398,3.10824 -1.73034,2.55094 -2.68022,5.23888 -2.65999,8.04434 0.0125,1.51842 0.31093,3.01316 0.85458,4.44879 0.006,0.0156 0.028,0.0311 0.0361,0.0473 0.009,0.0218 -0.009,0.0504 5.3e-4,0.0719 0.81925,2.10511 2.21585,4.10287 4.04853,5.98899 1.25206,1.28857 2.72669,2.51458 4.38953,3.68242 0.11796,-0.29786 0.25086,-0.61 0.35136,-0.8679 0.23498,-0.47623 0.46708,-0.94882 0.70499,-1.42414 0.53456,-0.0156 0.9448,0.0657 1.18231,0.29599 0.18239,0.17678 0.17212,0.41171 0.25491,0.62005 -0.11516,0.88853 -0.30689,1.77429 -0.58887,2.64552 2.09465,1.30202 4.44866,2.51436 6.99975,3.62381 0.7387,-0.42715 1.47441,-0.89366 2.27888,-1.3731 -0.15843,0.4541 -0.31031,0.90708 -0.49043,1.42128 -0.0797,0.20231 -0.16495,0.40076 -0.24588,0.60275 0.14691,0.0598 0.2823,0.12699 0.43048,0.18612 1.58188,0.62971 3.22589,1.22256 4.94802,1.78068 z m 104.29849,-17.69107 c -0.0965,-0.0125 -0.18954,-0.033 -0.28634,-0.0442 0.0731,-0.0311 0.14068,-0.0678 0.21382,-0.0987 0.22503,0.0311 0.22129,0.0735 0.0725,0.14286 z m 1.74046,-6.61739 c -0.25273,-0.028 -0.50026,-0.0439 -0.75165,-0.0859 -0.47374,-0.1466 -1.00369,-0.26331 -1.43379,-0.46055 -0.53101,-0.24339 -0.95971,-0.53997 -1.29389,-0.89401 1.49159,0.28012 2.94929,0.68934 3.47933,1.44049 z M 404.4858,477.75941 c 2.7603,-1.02461 3.47924,-1.32352 4.99106,-2.17648 -1.45826,-0.95467 -3.07052,-1.86023 -4.77596,-2.71813 -0.23437,0.18394 -0.46674,0.37504 -0.67546,0.56048 -1.03945,0.71221 -1.54126,1.05919 -2.20667,1.46806 -0.55995,0.21538 -1.07409,0.40897 -1.53351,0.59588 0.80947,0.38584 1.58882,0.78762 2.33315,1.19196 0.006,-0.006 -0.006,-0.0187 -1.8e-4,-0.0249 0.36082,-0.32606 0.66804,-0.66709 1.06584,-0.97332 0.0156,-0.0125 0.0523,-0.0355 0.0713,-0.0489 0.5433,-0.2437 1.08442,-0.48601 1.60398,-0.74066 0.0971,-0.0218 0.18861,-0.0526 0.28541,-0.0756 0.28385,-0.0436 0.60813,-0.099 0.96444,-0.15656 -0.95551,0.82983 -2.05201,1.54883 -2.73945,1.97869 -0.13321,0.071 -0.33505,0.18394 -0.49874,0.27046 -0.0828,0.0187 -0.16277,0.033 -0.24992,0.0514 0.46963,0.263 0.92292,0.52687 1.3647,0.79715 z m -6.10213,-3.13218 c 0.16962,-0.34423 0.40819,-0.68074 0.67215,-1.01604 1.1994,-0.54913 2.35753,-1.15026 3.45599,-1.79636 -0.92055,-0.41666 -1.85779,-0.82071 -2.83394,-1.2093 -0.6321,-0.25148 -1.28126,-0.50119 -1.93648,-0.74162 -1.96533,0.77063 -3.09504,1.36734 -4.66529,2.72367 1.23849,0.41765 2.44072,0.86338 3.58575,1.31916 0.5912,0.2353 1.15757,0.47639 1.72182,0.72049 z m -8.60514,-3.0749 c 1.98093,-0.74088 3.92681,-1.54223 5.66839,-2.47322 -4.63345,-1.54793 -9.77176,-2.81493 -15.29772,-3.77738 0.0937,0.20542 0.0324,0.46151 -0.17336,0.74567 -1.58864,0.65097 -3.1544,1.33174 -4.74213,1.9813 -0.24682,0.10116 -0.47328,0.21227 -0.71293,0.3212 3.57712,0.49824 6.9887,1.13062 10.20581,1.87872 0.24464,-0.59525 0.57213,-1.17976 0.98878,-1.73962 0.61274,-0.0881 1.23999,-0.15811 1.85811,-0.21663 -0.20386,0.21134 -0.41367,0.41781 -0.60377,0.58352 -0.58915,0.51364 -1.24982,0.9753 -1.9208,1.4403 0.92274,0.21756 1.79864,0.47106 2.68729,0.70764 1.2112,-0.65507 2.42451,-1.31475 3.56156,-2.03754 -0.56039,0.68062 -2.00364,1.49196 -3.23905,2.12917 0.57094,0.15437 1.16385,0.29505 1.71989,0.45677 z m -16.40331,-3.35506 c 0.11174,-0.0504 0.16963,-0.0716 0.2851,-0.12356 0.72647,-0.3274 2.90774,-1.64214 2.70058,-2.40979 -0.0526,-0.19514 -0.27203,-0.34277 -0.46848,-0.49736 0.57028,-0.0819 1.14091,-0.15282 1.71503,-0.21444 0.0355,-5.6e-4 0.31691,0.003 0.46487,-0.006 -3.19635,-0.50212 -6.5008,-0.90036 -9.91471,-1.1872 0.0467,0.51371 -0.35282,1.15181 -0.52566,1.49371 -0.33937,0.46565 -0.70262,0.90207 -1.06329,1.33298 -0.881,0.3434 -1.40332,0.55317 -1.92562,0.76893 2.99645,0.19546 5.90985,0.47573 8.73209,0.84318 z m -9.69793,-0.87829 c 0.15158,-0.37305 0.24806,-0.74863 0.45694,-1.10914 0.53237,-0.91959 1.30073,-1.79698 2.19857,-2.59497 -1.30357,-0.0934 -2.64215,-0.1743 -3.97131,-0.23499 -1.8874,0.95368 -3.4422,2.09717 -4.65816,3.7067 2.02618,0.0358 4.0077,0.11733 5.97396,0.23249 z m -18.28056,-0.8363 c -0.0962,-0.0317 1.18017,-0.45022 2.21137,-0.82069 -0.23561,0.11174 -0.47477,0.21134 -0.71296,0.32121 -0.41921,0.15219 -0.83434,0.31093 -1.24826,0.47221 -0.13321,0.028 -0.23188,0.0333 -0.25024,0.028 z m 3.74517,-1.36859 c 0.45964,-0.15594 0.85429,-0.30346 1.21287,-0.42376 -0.0822,0.0875 -0.16807,0.17896 -0.24837,0.26705 -0.14006,0.0383 -0.28883,0.0616 -0.42842,0.10177 -0.17616,0.003 -0.36976,0.0249 -0.53605,0.0551 z"
       id="path2510" />
    <text
       xml:space="preserve"
       style="font-size:40px;font-style:normal;font-variant:normal;font-weight:bold;font-stretch:normal;text-align:end;line-height:100%;writing-mode:lr;text-anchor:end;fill:#980101;fill-opacity:1;stroke:none;font-family:FreeSans;-inkscape-font-specification:FreeSans Bold"
       x="366.13312"
       y="297.42615"
       id="text2450"
       sodipodi:linespacing="100%"><tspan
         style="font-size:40px;font-style:normal;font-variant:normal;font-weight:bold;font-stretch:normal;text-align:end;line-height:100%;writing-mode:lr;text-anchor:end;fill:#980101;fill-opacity:1;font-family:FreeSans;-inkscape-font-specification:FreeSans Bold"
         sodipodi:role="line"
         x="366.13312"
         y="297.42615"
         id="tspan2452">Staff</tspan></text>
    <path
       sodipodi:type="star"
       style="fill:#980101;fill-opacity:1;fill-rule:nonzero;stroke:none"
       id="path2458"
       sodipodi:sides="5"
       sodipodi:cx="200.12498"
       sodipodi:cy="64.881889"
       sodipodi:r1="4.8541217"
       sodipodi:r2="2.4270606"
       sodipodi:arg1="0.60228735"
       sodipodi:arg2="1.2306059"
       inkscape:flatsided="false"
       inkscape:rounded="0"
       inkscape:randomized="0"
       d="m 204.12498,67.631889 -3.19017,-0.462031 -2.18916,2.366054 -0.5464,-3.176808 -2.92674,-1.35087 2.85248,-1.501344 0.38034,-3.200938 2.30932,2.248926 3.16181,-0.627418 -1.42524,2.891257 z"
       transform="matrix(1.9557127,0.6723545,-0.6723545,1.9557127,58.842969,20.772828)" />
    <path
       transform="matrix(1.9557129,0.6723545,-0.6723545,1.9557129,-110.51907,20.771385)"
       d="m 204.12498,67.631889 -3.19017,-0.462031 -2.18916,2.366054 -0.5464,-3.176808 -2.92674,-1.35087 2.85248,-1.501344 0.38034,-3.200938 2.30932,2.248926 3.16181,-0.627418 -1.42524,2.891257 z"
       inkscape:randomized="0"
       inkscape:rounded="0"
       inkscape:flatsided="false"
       sodipodi:arg2="1.2306059"
       sodipodi:arg1="0.60228735"
       sodipodi:r2="2.4270606"
       sodipodi:r1="4.8541217"
       sodipodi:cy="64.881889"
       sodipodi:cx="200.12498"
       sodipodi:sides="5"
       id="path2462"
       style="fill:#980101;fill-opacity:1;fill-rule:nonzero;stroke:none"
       sodipodi:type="star" />
    <rect
       style="opacity:0.66000001;fill:#000000;fill-opacity:1;fill-rule:nonzero;stroke:none;stroke-width:10;stroke-linecap:round;stroke-linejoin:round;stroke-miterlimit:4;stroke-dasharray:10, 10;stroke-dashoffset:9.99999644;stroke-opacity:1"
       id="rect3969"
       width="0"
       height="8"
       x="572.86975"
       y="1509.2343" />
    <rect
       inkscape:export-ydpi="292.34"
       inkscape:export-xdpi="292.34"
       inkscape:export-filename="D:\agile france\shadow-color-normal-512x512.png"
       y="388.43771"
       x="94.463905"
       height="180.31438"
       width="180.31438"
       id="rect8814"
       style="fill:#ffffff;fill-opacity:0;fill-rule:nonzero;stroke:none;stroke-width:4.35378695;stroke-linecap:round;stroke-linejoin:round;stroke-miterlimit:4;stroke-dasharray:none;stroke-dashoffset:9.99999644;stroke-opacity:1"
       transform="matrix(0.9514842,-0.3076976,0.3076976,0.9514842,0,0)" />
    <text
       sodipodi:linespacing="125%"
       id="text8816"
       y="458.49292"
       x="113.69415"
       style="font-size:58.89794922px;font-style:normal;font-variant:normal;font-weight:normal;font-stretch:normal;text-align:start;line-height:125%;writing-mode:lr-tb;text-anchor:start;fill:#000000;fill-opacity:1;stroke:none;stroke-width:1px;stroke-linecap:butt;stroke-linejoin:miter;stroke-opacity:1;font-family:Bitstream Vera Sans;-inkscape-font-specification:Bitstream Vera Sans"
       xml:space="preserve"
       transform="matrix(0.9514842,-0.3076976,0.3076976,0.9514842,0,0)"><tspan
         style="font-size:58.89794922px;font-style:normal;font-variant:normal;font-weight:normal;font-stretch:normal;text-align:start;line-height:125%;writing-mode:lr-tb;text-anchor:start;font-family:Bitstream Vera Sans;-inkscape-font-specification:Bitstream Vera Sans"
         y="458.49292"
         x="113.69415"
         id="tspan8818"
         sodipodi:role="line">agile</tspan></text>
    <text
       id="text8820"
       y="543.06635"
       x="110.21082"
       style="font-size:26.77679253px;font-style:normal;font-variant:normal;font-weight:normal;font-stretch:normal;text-align:start;line-height:125%;writing-mode:lr-tb;text-anchor:start;fill:#000000;fill-opacity:1;stroke:none;stroke-width:1px;stroke-linecap:butt;stroke-linejoin:miter;stroke-opacity:1;font-family:Bitstream Vera Sans;-inkscape-font-specification:Bitstream Vera Sans"
       xml:space="preserve"
       sodipodi:linespacing="125%"
       transform="matrix(0.9514842,-0.3076976,0.3076976,0.9514842,0,0)"><tspan
         style="font-size:26.77679253px;font-style:normal;font-variant:normal;font-weight:normal;font-stretch:normal;text-align:start;line-height:125%;writing-mode:lr-tb;text-anchor:start;font-family:Bitstream Vera Sans;-inkscape-font-specification:Bitstream Vera Sans"
         y="543.06635"
         x="110.21082"
         id="tspan8822"
         sodipodi:role="line">conférence</tspan></text>
    <path
       transform="matrix(0.8635879,-0.2792731,0.2792731,0.8635879,146.73997,310.60362)"
       sodipodi:nodetypes="ccscscsc"
       style="fill:#7c7c7c;fill-opacity:1;stroke:#7c7c7c;stroke-width:2.97424245;stroke-linecap:round;stroke-linejoin:round;stroke-miterlimit:4;stroke-dasharray:none;stroke-opacity:1;filter:url(#filter3651)"
       id="path8824"
       d="M 71.552417,144.09886 L 117.18934,144.95603 C 117.18934,144.95603 116.50385,151.976 117.22893,161.34629 C 117.655,166.85241 119.75925,177.71827 119.75925,177.71827 C 119.75925,177.71827 107.82514,179.57288 100.21935,180.05359 C 90.909257,180.64199 72.229847,179.79199 72.229847,179.79199 C 72.229847,179.79199 70.885577,172.56345 70.748637,167.04481 C 70.461237,155.46114 71.203307,144.08002 71.552417,144.09886 z" />
    <path
       sodipodi:nodetypes="ccscscsc"
       style="fill:url(#linearGradient8836);fill-opacity:1;stroke:#000000;stroke-width:2.67478538;stroke-linecap:round;stroke-linejoin:round;stroke-miterlimit:4;stroke-dasharray:none;stroke-opacity:1"
       id="path8826"
       d="M 247.94231,413.34526 L 287.89195,402.30674 C 287.89195,402.30674 289.05046,408.48432 292.02469,416.30719 C 293.77243,420.90403 298.32154,429.64954 298.32154,429.64954 C 298.32154,429.64954 288.3945,434.31308 281.89233,436.68583 C 273.93337,439.59015 257.45705,443.68154 257.45705,443.68154 C 257.45705,443.68154 254.47904,437.84926 252.97999,433.16716 C 249.83329,423.33939 247.63361,413.41921 247.94231,413.34526 z" />
    <path
       transform="matrix(0.8635879,-0.2792731,0.2792731,0.8635879,146.73997,310.60362)"
       d="M 133.8218,154.53176 L 178.51473,157.69878 C 178.51473,157.69878 177.47766,164.67501 177.70115,174.06995 C 177.83248,179.59056 179.33016,190.54899 179.33016,190.54899 C 179.33016,190.54899 167.53482,191.7969 160.05391,191.89186 C 150.89673,192.00806 132.62966,190.21327 132.62966,190.21327 C 132.62966,190.21327 131.68779,182.92596 131.84056,177.4075 C 132.16124,165.82418 133.48055,154.49528 133.8218,154.53176 z"
       id="path8828"
       style="fill:#7c7c7c;fill-opacity:1;stroke:#7c7c7c;stroke-width:2.94684792;stroke-linecap:round;stroke-linejoin:round;stroke-miterlimit:4;stroke-dasharray:none;stroke-opacity:1;filter:url(#filter3639)"
       sodipodi:nodetypes="ccscscsc" />
    <path
       sodipodi:nodetypes="ccscscsc"
       style="fill:url(#linearGradient8838);fill-opacity:1;stroke:#000000;stroke-width:2.67478538;stroke-linecap:round;stroke-linejoin:round;stroke-miterlimit:4;stroke-dasharray:none;stroke-opacity:1"
       id="path8830"
       d="M 304.10482,404.97305 L 344.65354,396.39231 C 344.65354,396.39231 345.43292,402.62906 347.92447,410.61879 C 349.38844,415.3137 353.39554,424.32049 353.39554,424.32049 C 353.39554,424.32049 343.20248,428.36971 336.56772,430.34132 C 328.44639,432.75468 311.75102,435.83333 311.75102,435.83333 C 311.75102,435.83333 309.13441,429.8302 307.92385,425.06532 C 305.38254,415.06392 303.79226,405.02799 304.10482,404.97305 z" />
    <path
       d="M 370.67289,257.61591 L 415.87172,253.50835 C 415.87172,253.50835 415.95635,260.52105 417.69031,269.70354 C 418.70921,275.09933 421.96865,285.61027 421.96865,285.61027 C 421.96865,285.61027 410.37481,288.73898 402.90972,290.03984 C 393.77189,291.63218 375.21759,292.82007 375.21759,292.82007 C 375.21759,292.82007 373.10416,285.82161 372.36968,280.38207 C 370.828,268.96443 370.32579,257.63519 370.67289,257.61591 z"
       id="path8832"
       style="fill:#7c7c7c;fill-opacity:1;stroke:#7c7c7c;stroke-width:4;stroke-linecap:round;stroke-linejoin:round;stroke-miterlimit:4;stroke-dasharray:none;stroke-opacity:1;filter:url(#filter3635)"
       sodipodi:nodetypes="ccscscsc"
       transform="matrix(0.8369452,-0.2471257,0.2487049,0.8422936,-22.891737,257.14237)" />
    <path
       d="M 350.12314,380.65583 L 388.76531,365.66901 C 388.76531,365.66901 390.53717,371.69935 394.28052,379.18469 C 396.48017,383.58323 401.88278,391.82883 401.88278,391.82883 C 401.88278,391.82883 392.47307,397.46384 386.24149,400.47628 C 378.61369,404.16367 362.63032,409.88581 362.63032,409.88581 C 362.63032,409.88581 359.08284,404.38131 357.12202,399.87304 C 353.00625,390.41009 349.82335,380.76036 350.12314,380.65583 z"
       id="path8834"
       style="fill:url(#linearGradient8840);fill-opacity:1;stroke:#000000;stroke-width:2.67478538;stroke-linecap:round;stroke-linejoin:round;stroke-miterlimit:4;stroke-dasharray:none;stroke-opacity:1"
       sodipodi:nodetypes="ccscscsc" />
    <path
       inkscape:connector-curvature="0"
       style="font-size:40px;font-style:normal;font-variant:normal;font-weight:normal;font-stretch:normal;text-align:start;line-height:125%;writing-mode:lr-tb;text-anchor:start;fill:#980101;fill-opacity:1;stroke:none;font-family:Bitstream Vera Sans;-inkscape-font-specification:Bitstream Vera Sans"
       d="m 394.97727,476.05657 c -2.50738,1.56315 -6.54469,4.172 -10.63445,5.51821 2.32637,-1.63258 10.58938,-5.97626 4.00178,-3.79608 -2.78078,0.33527 -8.19507,2.19356 -4.35033,5.39897 1.86868,0.96186 5.49003,-1.96769 6.38992,-0.54607 1.41232,0.32404 5.91272,-2.65314 4.59144,-5.87225 5.5e-4,-0.23436 9.9e-4,-0.46854 0.002,-0.70278 z m -0.012,5.11394 c -2.77927,1.16523 -5.54736,2.44564 -4.59141,5.86677 -1.9404,4.60703 7.00439,-0.65491 2.34148,2.09855 -3.42154,0.19857 -2.11748,3.39685 -2.36003,5.80085 -0.006,2.07143 -0.009,4.1429 -0.0156,6.21433 -2.50738,0.31286 -5.76265,-0.92124 -7.52839,1.3206 -0.89897,4.18414 4.27707,3.11944 6.85611,3.25542 3.75392,-0.0825 7.5362,0.21134 11.27047,-0.13601 4.60239,-3.16149 -1.73258,-5.20849 -4.78134,-4.42622 -2.38495,0.53356 -0.7659,-2.9181 -1.22919,-4.29725 0.0125,-5.23227 0.0249,-10.46461 0.037,-15.69691 z"
       id="path2508-0"
       sodipodi:nodetypes="cccccccccccccccccccc" />
  </g>
</svg>
