<?xml version="1.0" encoding="UTF-8" standalone="no"?>
<!-- Created with Inkscape (http://www.inkscape.org/) -->

<svg
   xmlns:dc="http://purl.org/dc/elements/1.1/"
   xmlns:cc="http://creativecommons.org/ns#"
   xmlns:rdf="http://www.w3.org/1999/02/22-rdf-syntax-ns#"
   xmlns:svg="http://www.w3.org/2000/svg"
   xmlns="http://www.w3.org/2000/svg"
   xmlns:sodipodi="http://sodipodi.sourceforge.net/DTD/sodipodi-0.dtd"
   xmlns:inkscape="http://www.inkscape.org/namespaces/inkscape"
   width="210mm"
   height="297mm"
   id="svg3004"
   version="1.1"
   inkscape:version="0.48.0 r9654"
   sodipodi:docname="Nouveau document 1">
  <defs
     id="defs3" />
  <sodipodi:namedview
     inkscape:document-units="mm"
     id="base"
     pagecolor="#ffffff"
     bordercolor="#666666"
     borderopacity="1.0"
     inkscape:pageopacity="0.0"
     inkscape:pageshadow="2"
     inkscape:zoom="0.7"
     inkscape:cx="422.54426"
     inkscape:cy="402.86888"
     inkscape:current-layer="layer1"
     showgrid="false"
     inkscape:window-width="1280"
     inkscape:window-height="842"
     inkscape:window-x="0"
     inkscape:window-y="24"
     inkscape:window-maximized="1" />
  <metadata
     id="metadata4">
    <rdf:RDF>
      <cc:Work
         rdf:about="">
        <dc:format>image/svg+xml</dc:format>
        <dc:type
           rdf:resource="http://purl.org/dc/dcmitype/StillImage" />
        <dc:title></dc:title>
      </cc:Work>
    </rdf:RDF>
  </metadata>
  <g
     inkscape:label="Layer 1"
     inkscape:groupmode="layer"
     id="layer1">
    <path
       style="color:#000000;fill:#ffffff;fill-opacity:1;stroke:#000000;stroke-width:1.37930703;marker:none;visibility:visible;display:inline;overflow:visible;enable-background:accumulate"
       d="m 214.81212,441.22153 364.4736,0 c 8.49787,31.71449 8.68878,63.71367 0,96.14062 -45.57428,12.21159 -313.80765,13.5759 -364.4736,0 -8.22926,-30.71203 -8.49787,-64.42613 0,-96.14062 z"
       id="rect3808"
       inkscape:connector-curvature="0"
       sodipodi:nodetypes="ccccc" />
    <path
       style="color:#000000;fill:#ffffff;fill-opacity:1;fill-rule:nonzero;stroke:#000000;stroke-width:0.61826795;stroke-linecap:round;stroke-linejoin:round;stroke-miterlimit:4;stroke-opacity:1;stroke-dasharray:none;stroke-dashoffset:0;marker:none;visibility:visible;display:inline;overflow:visible;enable-background:accumulate"
       d="m 513.3678,524.42763 c -6.54185,0 -12.17725,4.04996 -14.79212,9.90008 -7.3629,1.39736 -13.05187,10.4703 -13.05187,21.46307 0,7.2583 2.48132,13.68569 6.28424,17.61519 -2.23365,2.39857 -3.63519,5.70268 -3.63519,9.35867 0,7.32276 5.54052,13.24523 12.3751,13.24523 4.30119,0 8.0884,-2.34872 10.30614,-5.91685 2.6354,3.15476 5.97049,5.04672 9.59071,5.04672 8.54322,0 15.46888,-10.49846 15.46888,-23.43535 0,-9.21838 -3.51139,-17.19557 -8.6239,-21.01834 1.53737,-2.62731 2.43635,-5.71648 2.43635,-9.02995 0,-9.5196 -7.32693,-17.22847 -16.35834,-17.22847 z"
       id="path3819"
       inkscape:connector-curvature="0" />
    <path
       style="color:#000000;fill:#ffffff;fill-opacity:1;fill-rule:nonzero;stroke:#000000;stroke-width:0.99921262;stroke-linecap:round;stroke-linejoin:round;stroke-miterlimit:4;stroke-opacity:1;stroke-dashoffset:0;marker:none;visibility:visible;display:inline;overflow:visible;enable-background:accumulate"
       d="m 222.85715,379.79074 c 116.38198,-31.18446 243.08297,-28.26555 348.57144,0 l 60,66.57143 c -148.59209,39.81513 -314.52653,41.27621 -468.57144,0 z"
       id="rect3810"
       inkscape:connector-curvature="0"
       sodipodi:nodetypes="ccccc" />
    <path
       style="color:#000000;fill:#ffffff;fill-opacity:1;fill-rule:nonzero;stroke:#000000;stroke-width:1;marker:none;visibility:visible;display:inline;overflow:visible;enable-background:accumulate"
       d="m 330,426.64789 135.71428,0 c 11.85353,44.23798 11.55372,92.5952 0,135.71428 -43.40517,11.63038 -90.11278,12.21889 -135.71428,0 -11.71821,-43.73294 -11.85353,-91.4763 0,-135.71428 z"
       id="rect3010"
       inkscape:connector-curvature="0"
       sodipodi:nodetypes="ccccc" />
    <rect
       style="color:#000000;fill:#ffffff;stroke:#000000;stroke-width:0.99921260000000001;stroke-linecap:round;stroke-linejoin:round;stroke-miterlimit:4;stroke-opacity:1;stroke-dasharray:none;stroke-dashoffset:0;marker:none;visibility:visible;display:inline;overflow:visible;enable-background:accumulate;opacity:1;fill-opacity:1"
       id="rect3016"
       width="217.14285"
       height="34.285713"
       x="287.14285"
       y="466.64789" />
    <rect
       style="color:#000000;fill:#ffffff;stroke:#000000;stroke-width:1.18355166999999994;stroke-linecap:round;stroke-linejoin:round;stroke-miterlimit:4;stroke-opacity:1;stroke-dasharray:none;stroke-dashoffset:0;marker:none;visibility:visible;display:inline;overflow:visible;enable-background:accumulate;fill-opacity:1"
       id="rect3786"
       width="21.997566"
       height="131.9854"
       x="514.43567"
       y="-40.583797"
       transform="matrix(0.70710678,0.70710678,-0.70710678,0.70710678,0,0)" />
    <rect
       transform="matrix(-0.70710678,0.70710678,0.70710678,0.70710678,0,0)"
       y="526.81476"
       x="-50.964287"
       height="128.55927"
       width="21.426542"
       id="rect3788"
       style="color:#000000;fill:#ffffff;stroke:#000000;stroke-width:1.15282857000000005;stroke-linecap:round;stroke-linejoin:round;stroke-miterlimit:4;stroke-opacity:1;stroke-dasharray:none;stroke-dashoffset:0;marker:none;visibility:visible;display:inline;overflow:visible;enable-background:accumulate;fill-opacity:1" />
    <path
       style="fill:none;stroke:#000000;stroke-width:1px;stroke-linecap:butt;stroke-linejoin:miter;stroke-opacity:1"
       d="M 337.14286,652.36218 C 479.08007,585.74484 592.57451,558.771 732.85714,566.6479"
       id="path3815"
       inkscape:connector-curvature="0"
       sodipodi:nodetypes="cc" />
    <path
       inkscape:connector-curvature="0"
       id="path3828"
       d="m 280.51066,521.57049 c -6.54185,0 -12.17725,4.04996 -14.79212,9.90008 -7.3629,1.39736 -13.05187,10.4703 -13.05187,21.46307 0,7.2583 2.48132,13.68569 6.28424,17.61519 -2.23365,2.39857 -3.63519,5.70268 -3.63519,9.35867 0,7.32276 5.54052,13.24523 12.3751,13.24523 4.30119,0 8.0884,-2.34872 10.30614,-5.91685 2.6354,3.15476 5.97049,5.04672 9.59071,5.04672 8.54322,0 15.46888,-10.49846 15.46888,-23.43535 0,-9.21838 -3.51139,-17.19557 -8.6239,-21.01834 1.53737,-2.62731 2.43635,-5.71648 2.43635,-9.02995 0,-9.5196 -7.32693,-17.22847 -16.35834,-17.22847 z"
       style="color:#000000;fill:#ffffff;fill-opacity:1;fill-rule:nonzero;stroke:#000000;stroke-width:0.61826795;stroke-linecap:round;stroke-linejoin:round;stroke-miterlimit:4;stroke-opacity:1;stroke-dasharray:none;stroke-dashoffset:0;marker:none;visibility:visible;display:inline;overflow:visible;enable-background:accumulate" />
    <path
       style="fill:none;stroke:#000000;stroke-width:1px;stroke-linecap:butt;stroke-linejoin:miter;stroke-opacity:1"
       d="m 80,549.50504 c 125.71428,10.95238 241.42857,51.90476 330,101.42857"
       id="path3813"
       inkscape:connector-curvature="0"
       sodipodi:nodetypes="cc" />
    <path
       style="fill:none;stroke:#000000;stroke-width:1px;stroke-linecap:butt;stroke-linejoin:miter;stroke-opacity:1"
       d="m 321.42857,750.93361 c 33.96706,-26.08247 112.03856,-13.33207 120,-44.28571 7.96144,-30.95364 103.08347,-6.92418 138.57143,-40.00001 35.48796,-33.07582 81.207,38.89214 87.14286,68.57144"
       id="path3817"
       inkscape:connector-curvature="0"
       sodipodi:nodetypes="czzc" />
  </g>
</svg>
