<?xml version="1.0" encoding="UTF-8" standalone="no"?>
<!-- Created with Inkscape (http://www.inkscape.org/) -->

<svg
   xmlns:dc="http://purl.org/dc/elements/1.1/"
   xmlns:cc="http://creativecommons.org/ns#"
   xmlns:rdf="http://www.w3.org/1999/02/22-rdf-syntax-ns#"
   xmlns:svg="http://www.w3.org/2000/svg"
   xmlns="http://www.w3.org/2000/svg"
   xmlns:xlink="http://www.w3.org/1999/xlink"
   xmlns:sodipodi="http://sodipodi.sourceforge.net/DTD/sodipodi-0.dtd"
   xmlns:inkscape="http://www.inkscape.org/namespaces/inkscape"
   width="744.09448819"
   height="1052.3622047"
   id="svg2"
   version="1.1"
   inkscape:version="0.48.1 r9760"
   sodipodi:docname="questionnaire_session.svg"
   sodipodi:version="0.32"
   inkscape:output_extension="org.inkscape.output.svg.inkscape"
   inkscape:export-filename="D:\agile-france-badge\gitrepo\agile-france-publicity\questionnaire_session.png"
   inkscape:export-xdpi="300.01077"
   inkscape:export-ydpi="300.01077">
  <defs
     id="defs4">
    <inkscape:perspective
       sodipodi:type="inkscape:persp3d"
       inkscape:vp_x="0 : 526.18109 : 1"
       inkscape:vp_y="0 : 1000 : 0"
       inkscape:vp_z="744.09448 : 526.18109 : 1"
       inkscape:persp3d-origin="372.04724 : 350.78739 : 1"
       id="perspective83" />
    <linearGradient
       id="linearGradient3430">
      <stop
         style="stop-color:#ffffff;stop-opacity:1;"
         offset="0"
         id="stop3432" />
      <stop
         style="stop-color:#ffffff;stop-opacity:0.208;"
         offset="1"
         id="stop3434" />
    </linearGradient>
    <linearGradient
       inkscape:collect="always"
       xlink:href="#linearGradient3430"
       id="linearGradient3436"
       x1="541.46869"
       y1="303.22351"
       x2="545.08148"
       y2="224.10426"
       gradientUnits="userSpaceOnUse" />
  </defs>
  <sodipodi:namedview
     id="base"
     pagecolor="#ffffff"
     bordercolor="#666666"
     borderopacity="1.0"
     inkscape:pageopacity="0.0"
     inkscape:pageshadow="2"
     inkscape:zoom="1.2432572"
     inkscape:cx="530.50271"
     inkscape:cy="899.50959"
     inkscape:document-units="px"
     inkscape:current-layer="layer1"
     showgrid="false"
     inkscape:window-width="1400"
     inkscape:window-height="1026"
     inkscape:window-x="0"
     inkscape:window-y="24"
     inkscape:window-maximized="1"
     inkscape:object-paths="false"
     inkscape:snap-bbox="true"
     showguides="true"
     inkscape:guide-bbox="true">
    <inkscape:grid
       type="xygrid"
       id="grid2816"
       visible="true"
       enabled="true" />
  </sodipodi:namedview>
  <metadata
     id="metadata7">
    <rdf:RDF>
      <cc:Work
         rdf:about="">
        <dc:format>image/svg+xml</dc:format>
        <dc:type
           rdf:resource="http://purl.org/dc/dcmitype/StillImage" />
        <dc:title></dc:title>
      </cc:Work>
    </rdf:RDF>
  </metadata>
  <g
     inkscape:label="Layer 1"
     inkscape:groupmode="layer"
     id="layer1">
    <rect
       style="opacity:1;fill:#bf210d;fill-opacity:1"
       id="rect3146"
       width="640"
       height="80"
       x="52.047241"
       y="32.362183"
       ry="11.428572"
       rx="11.428572" />
    <flowRoot
       xml:space="preserve"
       id="flowRoot2818"
       style="font-size:56px;font-style:normal;font-variant:normal;font-weight:bold;font-stretch:normal;text-align:start;line-height:125%;writing-mode:lr;text-anchor:start;fill:#ffffff;fill-opacity:1;stroke:none;font-family:DejaVu Sans;-inkscape-font-specification:DejaVu Sans Bold"
       transform="translate(161.46912,-6.256037)"><flowRegion
         id="flowRegion2820"><rect
           id="rect2822"
           width="620"
           height="117.14286"
           x="51.42857"
           y="55.219326"
           style="font-size:56px;font-style:normal;font-variant:normal;font-weight:bold;font-stretch:normal;text-align:start;line-height:125%;writing-mode:lr;text-anchor:start;fill:#ffffff;fill-opacity:1;font-family:DejaVu Sans;-inkscape-font-specification:DejaVu Sans Bold" /></flowRegion><flowPara
         id="flowPara2824"
         style="font-size:56px;font-style:normal;font-variant:normal;font-weight:bold;font-stretch:normal;text-align:start;line-height:125%;writing-mode:lr;text-anchor:start;fill:#ffffff;fill-opacity:1;font-family:DejaVu Sans;-inkscape-font-specification:DejaVu Sans Bold">Votre avis</flowPara></flowRoot>    <flowRoot
       xml:space="preserve"
       id="flowRoot2826"
       style="font-size:40px;font-style:normal;font-variant:normal;font-weight:normal;font-stretch:semi-condensed;text-align:start;line-height:125%;writing-mode:lr-tb;text-anchor:start;fill:#001430;fill-opacity:1;stroke:none;font-family:DejaVu Sans;-inkscape-font-specification:DejaVu Sans Semi-Condensed"
       transform="translate(114.55608,192.08731)"><flowRegion
         id="flowRegion2828"><rect
           id="rect2830"
           width="645.71429"
           height="505.71429"
           x="48.57143"
           y="500.93362"
           style="font-size:40px;font-style:normal;font-variant:normal;font-weight:normal;font-stretch:semi-condensed;text-align:start;line-height:125%;writing-mode:lr-tb;text-anchor:start;fill:#001430;fill-opacity:1;font-family:DejaVu Sans;-inkscape-font-specification:DejaVu Sans Semi-Condensed" /></flowRegion><flowPara
         id="flowPara2832"
         style="font-size:40px;font-style:normal;font-variant:normal;font-weight:normal;font-stretch:semi-condensed;text-align:start;line-height:125%;writing-mode:lr-tb;text-anchor:start;fill:#001430;fill-opacity:1;font-family:DejaVu Sans;-inkscape-font-specification:DejaVu Sans Semi-Condensed">Pour que ça soit parfait:</flowPara></flowRoot>    <rect
       style="fill:url(#linearGradient3436);fill-opacity:1;fill-rule:nonzero;stroke:none"
       id="rect3377"
       width="144.25552"
       height="142.14357"
       x="478.6857"
       y="260.57828"
       rx="10.250358"
       ry="10.250358"
       transform="matrix(0.95075227,-0.30995179,0.30995179,0.95075227,0,0)" />
    <rect
       style="fill:#f9f9f9"
       id="rect2984"
       width="0"
       height="119.99999"
       x="1080"
       y="332.36218"
       ry="8.5714283" />
    <rect
       style="fill:#deeaf5;fill-opacity:1"
       id="rect3061"
       width="541.63098"
       height="200"
       x="151.11076"
       y="760.25659"
       ry="20"
       rx="16.925968" />
    <flowRoot
       xml:space="preserve"
       id="flowRoot3063"
       style="fill:black;stroke:none;stroke-opacity:1;stroke-width:1px;stroke-linejoin:miter;stroke-linecap:butt;fill-opacity:1;font-family:Bitstream Vera Sans;font-style:normal;font-weight:normal;font-size:40px"><flowRegion
         id="flowRegion3065"><rect
           id="rect3067"
           width="320"
           height="60"
           x="97.14286"
           y="169.50504" /></flowRegion><flowPara
         id="flowPara3069" /></flowRoot>    <flowRoot
       xml:space="preserve"
       id="flowRoot3071"
       style="fill:black;stroke:none;stroke-opacity:1;stroke-width:1px;stroke-linejoin:miter;stroke-linecap:butt;fill-opacity:1;font-family:Bitstream Vera Sans;font-style:normal;font-weight:normal;font-size:40px"><flowRegion
         id="flowRegion3073"><rect
           id="rect3075"
           width="40"
           height="80"
           x="242.85715"
           y="215.21933" /></flowRegion><flowPara
         id="flowPara3077" /></flowRoot>    <flowRoot
       xml:space="preserve"
       id="flowRoot3087"
       style="fill:black;stroke:none;stroke-opacity:1;stroke-width:1px;stroke-linejoin:miter;stroke-linecap:butt;fill-opacity:1;font-family:Bitstream Vera Sans;font-style:normal;font-weight:normal;font-size:40px"><flowRegion
         id="flowRegion3089"><rect
           id="rect3091"
           width="342.85715"
           height="48.57143"
           x="77.14286"
           y="295.21933" /></flowRegion><flowPara
         id="flowPara3093" /></flowRoot>    <text
       xml:space="preserve"
       style="font-size:40px;font-style:normal;font-variant:normal;font-weight:normal;font-stretch:semi-condensed;text-align:start;line-height:125%;writing-mode:lr-tb;text-anchor:start;fill:#001430;fill-opacity:1;stroke:none;font-family:DejaVu Sans;-inkscape-font-specification:DejaVu Sans Semi-Condensed"
       x="162.86467"
       y="399.22083"
       id="text3095"
       sodipodi:linespacing="125%"><tspan
         sodipodi:role="line"
         id="tspan3097"
         x="162.86467"
         y="399.22083"
         style="font-size:40px;font-style:normal;font-variant:normal;font-weight:normal;font-stretch:semi-condensed;text-align:start;line-height:125%;writing-mode:lr-tb;text-anchor:start;fill:#001430;fill-opacity:1;font-family:DejaVu Sans;-inkscape-font-specification:DejaVu Sans Semi-Condensed">J'ai aimé:</tspan></text>
    <rect
       style="fill:#deeaf5;fill-opacity:1"
       id="rect3061-7"
       width="541.63086"
       height="200"
       x="151.11076"
       y="433.79074"
       ry="14.285714"
       rx="12.089974" />
    <g
       id="g3425"
       transform="translate(2.6088389,0)">
      <rect
         ry="8.6198015"
         rx="8.6198015"
         y="37.563709"
         x="58.569298"
         height="69.596924"
         width="69.596924"
         id="rect3373"
         style="fill:#c1c3c8;fill-opacity:1;fill-rule:nonzero;stroke:#1f2f4d;stroke-width:2;stroke-linecap:round;stroke-linejoin:round;stroke-miterlimit:4;stroke-dasharray:none;stroke-opacity:1" />
      <path
         sodipodi:nodetypes="ccccccc"
         id="path3375"
         d="M 69.55287,40.569099 L 117.18264,40.569099 C 121.52683,40.569099 125.02414,44.066409 125.02414,48.410589 L 125.02414,64.753699 C 113.0312,76.746629 74.01467,77.056979 61.711383,64.753699 L 61.711383,48.410589 C 61.711383,44.066409 65.208693,40.569099 69.55287,40.569099 z"
         style="fill:#ffffff;fill-opacity:1;fill-rule:nonzero;stroke:none;stroke-width:4.54853296;stroke-linecap:round;stroke-linejoin:round;stroke-miterlimit:4;stroke-opacity:1" />
      <path
         sodipodi:nodetypes="cccccccccccc"
         id="rect3272"
         d="M 78.37651,52.249301 L 108.35901,52.249301 C 112.07319,52.249301 115.0633,55.239411 115.0633,58.953591 L 115.0633,72.362171 C 115.0633,76.076341 112.07319,79.066461 108.35901,79.066461 L 105.28163,79.289931 L 105.33291,92.475041 L 92.92081,79.066461 L 78.37651,79.066461 C 74.66234,79.066461 71.67222,76.076341 71.67222,72.362171 L 71.67222,58.953591 C 71.67222,55.239411 74.66234,52.249301 78.37651,52.249301 z"
         style="fill:#ffffff;fill-opacity:1;fill-rule:nonzero;stroke:#1f2f4d;stroke-width:4.46999979;stroke-linecap:round;stroke-linejoin:round;stroke-miterlimit:4;stroke-dasharray:none;stroke-opacity:1" />
    </g>
    <g
       id="g3406"
       transform="translate(1.9525241,0)">
      <rect
         ry="8.6198015"
         rx="8.6198015"
         y="681.06335"
         x="59.225613"
         height="69.596924"
         width="69.596924"
         id="rect3299"
         style="opacity:1;fill:#c1c3c8;fill-opacity:1;fill-rule:nonzero;stroke:#1f2f4d;stroke-width:2;stroke-linecap:round;stroke-linejoin:round;stroke-miterlimit:4;stroke-dasharray:none;stroke-opacity:1" />
      <path
         sodipodi:nodetypes="ccccccc"
         id="path3301"
         d="M 70.209175,684.46431 L 117.83896,684.46431 C 122.18315,684.46431 125.68046,687.96162 125.68046,692.3058 L 125.68046,708.64891 C 113.68752,720.64184 74.670974,720.95219 62.367684,708.64891 L 62.367684,692.3058 C 62.367684,687.96162 65.864994,684.46431 70.209175,684.46431 z"
         style="fill:#ffffff;fill-opacity:1;fill-rule:nonzero;stroke:none;stroke-width:4.54853296;stroke-linecap:round;stroke-linejoin:round;stroke-miterlimit:4;stroke-opacity:1" />
      <path
         sodipodi:nodetypes="ccsc"
         id="path3305"
         d="M 118.2454,726.61302 L 69.802747,726.61302 C 69.802747,713.24285 80.653902,702.3917 94.024081,702.3917 C 107.39425,702.3917 118.2454,713.24285 118.2454,726.61302 z"
         style="fill:#ffffff;fill-opacity:1;fill-rule:nonzero;stroke:#1f2f4d;stroke-width:4.46999979;stroke-linecap:round;stroke-linejoin:round;stroke-miterlimit:4;stroke-dasharray:none;stroke-opacity:1" />
      <path
         sodipodi:nodetypes="csscc"
         id="path3308"
         d="M 96.004331,728.26724 C 95.132371,729.43798 93.474531,729.68049 92.303786,728.80853 C 91.133043,727.93658 90.890547,726.27874 91.762505,725.10799 C 92.634457,723.93724 105.34965,708.84838 106.52039,709.72033 C 107.69113,710.59228 96.876281,727.09649 96.004331,728.26724 z"
         style="fill:#ffffff;fill-opacity:1;fill-rule:nonzero;stroke:#1f2f4d;stroke-width:4.46999979;stroke-linecap:round;stroke-linejoin:round;stroke-miterlimit:4;stroke-dasharray:none;stroke-opacity:1" />
    </g>
    <rect
       style="opacity:1;fill:#c1c3c8;fill-opacity:1;fill-rule:nonzero;stroke:none;stroke-width:4.46999979;stroke-linecap:round;stroke-linejoin:round;stroke-miterlimit:4;stroke-dasharray:none;stroke-opacity:1"
       id="rect3355"
       width="117.1777"
       height="66.670067"
       x="-155.90596"
       y="-0.29306915"
       rx="11.428572"
       ry="11.428572" />
    <rect
       style="opacity:1;fill:#001430;fill-opacity:1;fill-rule:nonzero;stroke:none;stroke-width:4.46999979;stroke-linecap:round;stroke-linejoin:round;stroke-miterlimit:4;stroke-dasharray:none;stroke-opacity:1"
       id="rect3357"
       width="117.178"
       height="66.669998"
       x="-155.90611"
       y="74.80928"
       rx="11.047647"
       ry="11.785702" />
    <rect
       style="opacity:1;fill:#1f2f4d;fill-opacity:1;fill-rule:nonzero;stroke:none;stroke-width:4.46999979;stroke-linecap:round;stroke-linejoin:round;stroke-miterlimit:4;stroke-dasharray:none;stroke-opacity:1"
       id="rect3359"
       width="117.178"
       height="66.669998"
       x="-155.90611"
       y="149.91154"
       rx="10.521569"
       ry="8.5714197" />
    <rect
       style="opacity:1;fill:#deeaf5;fill-opacity:1;fill-rule:nonzero;stroke:none;stroke-width:4.46999979;stroke-linecap:round;stroke-linejoin:round;stroke-miterlimit:4;stroke-dasharray:none;stroke-opacity:1"
       id="rect3361"
       width="117.178"
       height="66.669998"
       x="-155.90611"
       y="225.01385"
       rx="9.0802584"
       ry="7.6967854" />
    <rect
       style="opacity:1;fill:#bf210d;fill-opacity:1;fill-rule:nonzero;stroke:none;stroke-width:4.46999979;stroke-linecap:round;stroke-linejoin:round;stroke-miterlimit:4;stroke-dasharray:none;stroke-opacity:1"
       id="rect3363"
       width="117.178"
       height="66.669998"
       x="-155.90611"
       y="300.11609"
       rx="9.0802584"
       ry="8.9795828" />
    <g
       id="g3416"
       transform="translate(3.1854609,0)">
      <path
         sodipodi:nodetypes="ccccccc"
         id="path3284"
         d="M 70.484416,355.31078 L 118.11421,355.31078 C 122.4584,355.31078 125.95571,358.80809 125.95571,363.15227 L 125.95571,379.49538 C 113.96277,391.48831 74.946216,391.79866 62.642926,379.49538 L 62.642926,363.15227 C 62.642926,358.80809 66.140236,355.31078 70.484416,355.31078 z"
         style="fill:#ffffff;fill-opacity:1;fill-rule:nonzero;stroke:none;stroke-width:4.54853296;stroke-linecap:round;stroke-linejoin:round;stroke-miterlimit:4;stroke-opacity:1" />
      <rect
         ry="8.6198015"
         rx="8.6198015"
         y="353.83643"
         x="57.992676"
         height="69.596924"
         width="69.596924"
         id="rect3369"
         style="fill:#c1c3c8;fill-opacity:1;fill-rule:nonzero;stroke:#1f2f4d;stroke-width:2;stroke-linecap:round;stroke-linejoin:round;stroke-miterlimit:4;stroke-dasharray:none;stroke-opacity:1" />
      <path
         sodipodi:nodetypes="ccccccc"
         id="path3371"
         d="M 68.976242,357.29778 L 116.60603,357.29778 C 120.95022,357.29778 124.44753,360.79509 124.44753,365.13927 L 124.44753,381.48238 C 112.45459,393.47531 73.438041,393.78566 61.134751,381.48238 L 61.134751,365.13927 C 61.134751,360.79509 64.632061,357.29778 68.976242,357.29778 z"
         style="fill:#ffffff;fill-opacity:1;fill-rule:nonzero;stroke:none;stroke-width:4.54853296;stroke-linecap:round;stroke-linejoin:round;stroke-miterlimit:4;stroke-opacity:1" />
      <path
         sodipodi:nodetypes="ccscccssc"
         id="path3288"
         d="M 92.835567,375.37487 C 90.791316,372.25642 88.916938,367.4455 82.751729,367.4455 C 76.436449,367.4455 71.335225,372.54672 71.335225,378.862 C 71.335225,383.36462 74.899589,389.13412 77.732028,391.96654 L 93.146517,409.82426 L 108.3389,391.74443 C 110.95798,389.12536 114.24705,383.1693 114.24705,378.862 C 114.24705,372.54672 109.14584,367.4455 102.83055,367.4455 C 97.295527,367.4455 94.892197,372.33146 92.835567,375.37487 z"
         style="fill:#ffffff;fill-opacity:1;fill-rule:nonzero;stroke:#1f2f4d;stroke-width:4.949;stroke-linecap:round;stroke-linejoin:round;stroke-miterlimit:4;stroke-dasharray:none;stroke-opacity:1" />
    </g>
    <text
       xml:space="preserve"
       style="font-size:6px;font-style:normal;font-variant:normal;font-weight:normal;font-stretch:normal;text-align:start;line-height:125%;writing-mode:lr-tb;text-anchor:start;fill:#001430;fill-opacity:1;stroke:none;font-family:Bitstream Vera Sans;-inkscape-font-specification:Bitstream Vera Sans"
       x="-1027.2218"
       y="738.17737"
       id="text3499"
       transform="matrix(0,-1,1,0,0,0)"
       sodipodi:linespacing="125%"><tspan
         sodipodi:role="line"
         id="tspan3501"
         x="-1027.2218"
         y="738.17737">agile conference - questionnaire session</tspan></text>
    <text
       xml:space="preserve"
       style="font-size:12px;font-style:normal;font-variant:normal;font-weight:normal;font-stretch:normal;text-align:start;line-height:125%;writing-mode:lr-tb;text-anchor:start;fill:#000000;fill-opacity:1;stroke:none;stroke-width:1px;stroke-linecap:butt;stroke-linejoin:miter;stroke-opacity:1;font-family:Bitstream Vera Sans;-inkscape-font-specification:Bitstream Vera Sans"
       x="-359.31009"
       y="387.71857"
       id="text2453"
       sodipodi:linespacing="125%"><tspan
         sodipodi:role="line"
         id="tspan2455"
         x="-359.31009"
         y="387.71857">palette from:</tspan><tspan
         sodipodi:role="line"
         x="-359.31009"
         y="402.71857"
         id="tspan2457">http://www.colourlovers.com/palette/99630/July_14th</tspan></text>
    <g
       id="g3236"
       transform="translate(-0.7972518,-2.403289)">
      <path
         id="path2456"
         d="M 175.42653,471.62957 L 670.02036,471.62957"
         style="fill:none;fill-rule:evenodd;stroke:#ffffff;stroke-width:3;stroke-linecap:round;stroke-linejoin:miter;stroke-miterlimit:4;stroke-dasharray:none;stroke-opacity:1" />
      <path
         style="fill:none;fill-rule:evenodd;stroke:#ffffff;stroke-width:3;stroke-linecap:round;stroke-linejoin:miter;stroke-miterlimit:4;stroke-dasharray:none;stroke-opacity:1"
         d="M 175.42653,507.9118 L 670.02036,507.9118"
         id="path3228" />
      <path
         id="path3230"
         d="M 175.42653,544.19402 L 670.02036,544.19402"
         style="fill:none;fill-rule:evenodd;stroke:#ffffff;stroke-width:3;stroke-linecap:round;stroke-linejoin:miter;stroke-miterlimit:4;stroke-dasharray:none;stroke-opacity:1" />
      <path
         style="fill:none;fill-rule:evenodd;stroke:#ffffff;stroke-width:3;stroke-linecap:round;stroke-linejoin:miter;stroke-miterlimit:4;stroke-dasharray:none;stroke-opacity:1"
         d="M 175.42653,580.47626 L 670.02036,580.47626"
         id="path3232" />
      <path
         id="path3234"
         d="M 175.42653,616.75849 L 670.02036,616.75849"
         style="fill:none;fill-rule:evenodd;stroke:#ffffff;stroke-width:3;stroke-linecap:round;stroke-linejoin:miter;stroke-miterlimit:4;stroke-dasharray:none;stroke-opacity:1" />
    </g>
    <g
       id="g3243"
       transform="translate(-1.120383,326.03967)">
      <path
         id="path3245"
         d="M 175.42653,471.62957 L 670.02036,471.62957"
         style="fill:none;fill-rule:evenodd;stroke:#ffffff;stroke-width:3;stroke-linecap:round;stroke-linejoin:miter;stroke-miterlimit:4;stroke-dasharray:none;stroke-opacity:1" />
      <path
         style="fill:none;fill-rule:evenodd;stroke:#ffffff;stroke-width:3;stroke-linecap:round;stroke-linejoin:miter;stroke-miterlimit:4;stroke-dasharray:none;stroke-opacity:1"
         d="M 175.42653,507.9118 L 670.02036,507.9118"
         id="path3247" />
      <path
         id="path3249"
         d="M 175.42653,544.19402 L 670.02036,544.19402"
         style="fill:none;fill-rule:evenodd;stroke:#ffffff;stroke-width:3;stroke-linecap:round;stroke-linejoin:miter;stroke-miterlimit:4;stroke-dasharray:none;stroke-opacity:1" />
      <path
         style="fill:none;fill-rule:evenodd;stroke:#ffffff;stroke-width:3;stroke-linecap:round;stroke-linejoin:miter;stroke-miterlimit:4;stroke-dasharray:none;stroke-opacity:1"
         d="M 175.42653,580.47626 L 670.02036,580.47626"
         id="path3251" />
      <path
         id="path3253"
         d="M 175.42653,616.75849 L 670.02036,616.75849"
         style="fill:none;fill-rule:evenodd;stroke:#ffffff;stroke-width:3;stroke-linecap:round;stroke-linejoin:miter;stroke-miterlimit:4;stroke-dasharray:none;stroke-opacity:1" />
    </g>
    <image
       y="72.883766"
       x="544.02734"
       id="image3171"
       xlink:href="file:///home/ericlemerdy/conference-app/public/images/AgileFranceConference2011-logo.png"
       height="159.24986"
       width="159.24986" />
    <path
       style="fill:#ffffff;fill-opacity:1;fill-rule:nonzero;stroke:none"
       d="m 72.836882,223.53322 47.629788,0 c 4.34419,0 7.8415,3.49731 7.8415,7.84149 l 0,16.34311 c -11.99294,11.99293 -51.009488,12.30328 -63.312778,0 l 0,-16.34311 c 0,-4.34418 3.49731,-7.84149 7.84149,-7.84149 z"
       id="path3284-3"
       sodipodi:nodetypes="ccccccc"
       inkscape:connector-curvature="0" />
    <rect
       style="fill:#c1c3c8;fill-opacity:1;fill-rule:nonzero;stroke:#1f2f4d;stroke-width:2;stroke-linecap:round;stroke-linejoin:round;stroke-miterlimit:4;stroke-opacity:1;stroke-dasharray:none"
       id="rect3369-8"
       width="69.596924"
       height="69.596924"
       x="60.345142"
       y="222.05887"
       rx="8.6198015"
       ry="8.6198015" />
    <path
       style="fill:#ffffff;fill-opacity:1;fill-rule:nonzero;stroke:none"
       d="m 71.328708,225.52022 47.629782,0 c 4.34419,0 7.8415,3.49731 7.8415,7.84149 l 0,16.34311 c -11.99294,11.99293 -51.009483,12.30328 -63.312773,0 l 0,-16.34311 c 0,-4.34418 3.49731,-7.84149 7.841491,-7.84149 z"
       id="path3371-8"
       sodipodi:nodetypes="ccccccc"
       inkscape:connector-curvature="0" />
    <text
       xml:space="preserve"
       style="font-size:40px;font-style:normal;font-variant:normal;font-weight:normal;font-stretch:semi-condensed;text-align:start;line-height:125%;writing-mode:lr-tb;text-anchor:start;fill:#001430;fill-opacity:1;stroke:none;font-family:DejaVu Sans;-inkscape-font-specification:DejaVu Sans Semi-Condensed"
       x="296.75253"
       y="316.28915"
       id="text3095-7-5"
       sodipodi:linespacing="125%"><tspan
         sodipodi:role="line"
         id="tspan3097-3-7"
         x="296.75253"
         y="316.28915"
         style="font-size:20px;font-style:normal;font-variant:normal;font-weight:normal;font-stretch:normal;text-align:start;line-height:125%;writing-mode:lr-tb;text-anchor:start;fill:#001430;fill-opacity:1;font-family:DejaVu Sans;-inkscape-font-specification:DejaVu Sans" /></text>
    <text
       xml:space="preserve"
       style="font-size:40px;font-style:normal;font-variant:normal;font-weight:normal;font-stretch:semi-condensed;text-align:start;line-height:125%;writing-mode:lr-tb;text-anchor:start;fill:#001430;fill-opacity:1;stroke:none;font-family:DejaVu Sans;-inkscape-font-specification:DejaVu Sans Semi-Condensed"
       x="400.20142"
       y="317.64075"
       id="text3095-7-5-5"
       sodipodi:linespacing="125%"><tspan
         sodipodi:role="line"
         id="tspan3097-3-7-3"
         x="400.20142"
         y="317.64075"
         style="font-size:20px;font-style:normal;font-variant:normal;font-weight:normal;font-stretch:normal;text-align:start;line-height:125%;writing-mode:lr-tb;text-anchor:start;fill:#001430;fill-opacity:1;font-family:DejaVu Sans;-inkscape-font-specification:DejaVu Sans" /></text>
    <text
       xml:space="preserve"
       style="font-size:40px;font-style:normal;font-variant:normal;font-weight:normal;font-stretch:semi-condensed;text-align:start;line-height:125%;writing-mode:lr-tb;text-anchor:start;fill:#001430;fill-opacity:1;stroke:none;font-family:DejaVu Sans;-inkscape-font-specification:DejaVu Sans Semi-Condensed"
       x="157.97668"
       y="194.57593"
       id="text3095-7-8"
       sodipodi:linespacing="125%"><tspan
         sodipodi:role="line"
         id="tspan3097-3-4"
         x="157.97668"
         y="194.57593"
         style="font-size:20px;font-style:normal;font-variant:normal;font-weight:normal;font-stretch:normal;text-align:start;line-height:125%;writing-mode:lr-tb;text-anchor:start;fill:#001430;fill-opacity:1;font-family:DejaVu Sans;-inkscape-font-specification:DejaVu Sans" /></text>
    <g
       id="g4439"
       transform="translate(7.3144532e-6,4)">
      <path
         sodipodi:nodetypes="ccccsssscsssscccccc"
         inkscape:connector-curvature="0"
         id="rect4218"
         d="m 417.04267,229.63192 c -1.92119,0.0335 -3.64523,1.94252 -4.67081,4.50424 -0.4886,4.79202 -1.59405,9.38344 -4.24062,12.31434 -1.7741,0.88726 -3.02848,2.45371 -3.19582,4.50424 l -0.67604,0 c -2.12202,0 -3.83089,2.54527 -3.83089,5.70261 l 0,3.09925 c 0,3.15734 1.70887,5.70261 3.83089,5.70261 l 0.81944,0 c 2.16562,1.25032 2.83751,4.0564 5.46978,4.27696 l 15.78189,1.32235 c 3.11972,0.2614 7.65415,-2.52461 7.65415,-5.68195 l 0,-16.61197 c 0,-3.15734 -2.55714,-6.16325 -5.65415,-5.70261 l -10.26351,1.52896 2.21249,-8.30598 c 0.81024,-3.04975 0.93349,-5.65388 -1.31111,-6.26047 l -1.08576,-0.28927 c -0.28057,-0.0758 -0.56547,-0.10809 -0.83993,-0.10331 z"
         style="fill:none;stroke:#1f2f4d;stroke-width:5;stroke-miterlimit:4;stroke-opacity:1" />
    </g>
    <g
       id="g4435"
       transform="translate(7.446289e-6,-1.7538965)">
      <path
         sodipodi:nodetypes="ccccsssscsssscccccc"
         inkscape:connector-curvature="0"
         id="rect4218-9"
         d="m 219.70272,276.82899 c 1.92119,-0.0335 3.64523,-1.94252 4.67081,-4.50424 0.4886,-4.79202 1.59405,-9.38344 4.24062,-12.31434 1.7741,-0.88726 3.02848,-2.45371 3.19582,-4.50424 l 0.67604,0 c 2.12202,0 3.83089,-2.54527 3.83089,-5.70261 l 0,-3.09925 c 0,-3.15734 -1.70887,-5.70261 -3.83089,-5.70261 l -0.81944,0 c -2.16562,-1.25032 -2.83751,-4.0564 -5.46978,-4.27696 l -15.78189,-1.32235 c -3.11972,-0.2614 -7.65415,2.52461 -7.65415,5.68195 l 0,16.61197 c 0,3.15734 2.55714,6.16325 5.65415,5.70261 l 10.26351,-1.52896 -2.21249,8.30598 c -0.81024,3.04975 -0.93349,5.65388 1.31111,6.26047 l 1.08576,0.28927 c 0.28057,0.0758 0.56547,0.10809 0.83993,0.10331 z"
         style="fill:none;stroke:#1f2f4d;stroke-width:5;stroke-miterlimit:4;stroke-opacity:1" />
      <rect
         transform="scale(-1,-1)"
         y="-253.76601"
         x="-234.9922"
         height="10.806315"
         width="0.92422432"
         id="rect4255-2"
         style="fill:none;stroke:#1f2f4d;stroke-width:5;stroke-linecap:butt;stroke-linejoin:round;stroke-miterlimit:4;stroke-opacity:1;stroke-dasharray:none;stroke-dashoffset:0" />
    </g>
    <path
       style="fill:#ffffff;fill-opacity:1;fill-rule:nonzero;stroke:none"
       d="m 61.868784,519.67257 47.629796,0 c 4.34419,0 7.8415,3.49731 7.8415,7.84149 l 0,16.34311 c -11.99294,11.99293 -51.009496,12.30328 -63.312786,0 l 0,-16.34311 c 0,-4.34418 3.49731,-7.84149 7.84149,-7.84149 z"
       id="path3284-9"
       sodipodi:nodetypes="ccccccc"
       inkscape:connector-curvature="0" />
    <g
       id="g4442"
       transform="translate(-3.4969215,-4.0100637)">
      <g
         transform="translate(0,4)"
         id="g4427">
        <path
           sodipodi:type="arc"
           style="fill:none;stroke:#1f2f4d;stroke-width:5;stroke-linecap:butt;stroke-linejoin:round;stroke-miterlimit:4;stroke-opacity:1;stroke-dasharray:none;stroke-dashoffset:0"
           id="path4383"
           sodipodi:cx="360.54486"
           sodipodi:cy="315.78894"
           sodipodi:rx="21.516064"
           sodipodi:ry="21.516064"
           d="m 382.06092,315.78894 c 0,11.88299 -9.63307,21.51606 -21.51606,21.51606 -11.88299,0 -21.51606,-9.63307 -21.51606,-21.51606 0,-11.88299 9.63307,-21.51606 21.51606,-21.51606 11.88299,0 21.51606,9.63307 21.51606,21.51606 z"
           transform="translate(-38.675232,-61.42537)" />
        <path
           transform="matrix(0.07009348,0,0,0.07009348,289.86145,225.69355)"
           sodipodi:type="arc"
           style="fill:none;stroke:#1f2f4d;stroke-width:28.5333252;stroke-linecap:butt;stroke-linejoin:round;stroke-miterlimit:4;stroke-opacity:1;stroke-dasharray:none;stroke-dashoffset:0"
           id="path4383-9"
           sodipodi:cx="360.54486"
           sodipodi:cy="315.78894"
           sodipodi:rx="21.516064"
           sodipodi:ry="21.516064"
           d="m 382.06092,315.78894 c 0,11.88299 -9.63307,21.51606 -21.51606,21.51606 -11.88299,0 -21.51606,-9.63307 -21.51606,-21.51606 0,-11.88299 9.63307,-21.51606 21.51606,-21.51606 11.88299,0 21.51606,9.63307 21.51606,21.51606 z" />
        <path
           transform="matrix(0.09345797,0,0,0.09345797,295.71452,220.72833)"
           sodipodi:type="arc"
           style="fill:none;stroke:#1f2f4d;stroke-width:21.3999939;stroke-linecap:butt;stroke-linejoin:round;stroke-miterlimit:4;stroke-opacity:1;stroke-dasharray:none;stroke-dashoffset:0"
           id="path4383-9-6"
           sodipodi:cx="360.54486"
           sodipodi:cy="315.78894"
           sodipodi:rx="21.516064"
           sodipodi:ry="21.516064"
           d="m 382.06092,315.78894 c 0,11.88299 -9.63307,21.51606 -21.51606,21.51606 -11.88299,0 -21.51606,-9.63307 -21.51606,-21.51606 0,-11.88299 9.63307,-21.51606 21.51606,-21.51606 11.88299,0 21.51606,9.63307 21.51606,21.51606 z" />
      </g>
      <path
         sodipodi:nodetypes="cc"
         inkscape:connector-curvature="0"
         id="path4433"
         d="m 314.01324,267.97214 c 8.09109,-0.38344 15.47097,-1.8818 21.35667,-5.7225"
         style="fill:none;stroke:#1f2f4d;stroke-width:2;stroke-linecap:round;stroke-linejoin:miter;stroke-miterlimit:4;stroke-opacity:1;stroke-dasharray:none" />
    </g>
    <path
       style="font-size:68.51829528999999752px;font-style:normal;font-weight:normal;line-height:125%;letter-spacing:0px;word-spacing:0px;fill:#ffffff;fill-opacity:1;stroke:#1f2f4d;stroke-width:5;stroke-linecap:round;stroke-linejoin:round;stroke-miterlimit:4;stroke-opacity:1;stroke-dasharray:none;font-family:Sans"
       d="m 94.8125,230.875 c -8.743765,-3.9e-4 -17.500503,7.94462 -16.1875,16.90625 3.627829,1.62664 10.199562,2.37041 10.28125,-3 2.4915,-7.22111 17.34339,-6.05695 15.875,2.6875 -1.74651,7.64588 -12.743304,8.8258 -14.03125,17.03125 -1.977864,4.54976 2.351509,6.75828 6.5625,5.53125 4.16512,-0.23961 2.29024,-6.33756 6.25,-7.84375 7.12655,-3.95047 13.58487,-11.55779 10.90625,-20.21875 -2.0335,-8.63183 -11.70073,-11.92361 -19.65625,-11.09375 z m -4.28125,41.71875 c -2.303588,5.94951 0.0895,12.58072 7.5,10.0625 4.55863,-0.98878 3.97321,-13.1624 -2.46875,-10.75 -1.719867,0.10464 -3.52989,-0.40409 -5.03125,0.6875 z"
       id="text3943-1"
       inkscape:connector-curvature="0" />
  </g>
</svg>
