<?xml version="1.0" encoding="UTF-8" standalone="no"?>
<!-- Created with Inkscape (http://www.inkscape.org/) -->

<svg xmlns:dc="http://purl.org/dc/elements/1.1/" xmlns:cc="http://creativecommons.org/ns#" xmlns:rdf="http://www.w3.org/1999/02/22-rdf-syntax-ns#" xmlns:svg="http://www.w3.org/2000/svg" xmlns="http://www.w3.org/2000/svg" xmlns:xlink="http://www.w3.org/1999/xlink" version="1.1" width="326" height="157" id="svg2">
    <defs id="defs4">
        <clipPath id="clipPath3937">
            <rect width="326.10501" height="97.798737" x="-86.132469" y="0.9653486" id="rect3939" />
        </clipPath>
    </defs>
    <metadata id="metadata6">
        <rdf:RDF>
            <cc:Work rdf:about="">
                <dc:title>Victorian Ornament 2</dc:title>
                <dc:description>Vertical repetitive Victorian ornament</dc:description>
                <dc:subject>
                    <rdf:Bag>
                        <rdf:li>victorian</rdf:li>
                        <rdf:li>history</rdf:li>
                        <rdf:li>ornament</rdf:li>
                        <rdf:li>decoration</rdf:li>
                        <rdf:li>pattern</rdf:li>
                        <rdf:li>motif</rdf:li>
                        <rdf:li>design</rdf:li>
                        <rdf:li>repeat</rdf:li>
                        <rdf:li>vertical</rdf:li>
                    </rdf:Bag>
                </dc:subject>
                <dc:publisher>
                    <cc:Agent rdf:about="http://www.openclipart.org">
                        <dc:title>Open Clip Art Library</dc:title>
                    </cc:Agent>
                </dc:publisher>
                <dc:creator>
                    <cc:Agent>
                        <dc:title>Jakub Jankiewicz</dc:title>
                    </cc:Agent>
                </dc:creator>
                <dc:rights>
                    <cc:Agent>
                        <dc:title>Jakub Jankiewicz</dc:title>
                    </cc:Agent>
                </dc:rights>
                <dc:date />
                <dc:format>image/svg+xml</dc:format>
                <dc:type rdf:resource="http://purl.org/dc/dcmitype/StillImage" />
                <cc:license rdf:resource="http://web.resource.org/cc/PublicDomain" />
                <dc:language>pl</dc:language>
            </cc:Work>
            <cc:License rdf:about="http://web.resource.org/cc/PublicDomain">
                <cc:permits rdf:resource="http://web.resource.org/cc/Reproduction" />
                <cc:permits rdf:resource="http://web.resource.org/cc/Distribution" />
                <cc:permits rdf:resource="http://web.resource.org/cc/DerivativeWorks" />
            </cc:License>
        </rdf:RDF>
    </metadata>
    <g id="layer1">
        <g transform="translate(86.132469,29.670675)" clip-path="url(#clipPath3937)" id="g3930">
            <path d="m 76.91999,10.86029 c -16.1361,0 -26.3773,4.66448 -32.7812,9.8125 -22.09649,17.70802 -20.01702,47.68102 -7,63.5625 -7.1692,4.41484 -15.22784,9.99358 -23.28125,7.6875 -5.11446,-1.46452 -6.53146,-7.09736 -5.78125,-11.40625 0.57654,-3.3114 3.56069,-5.07127 6.625,-4.8125 1.39637,0.11792 2.69652,0.76062 3.46875,1.65625 0.86179,0.9995 1.64369,3.00325 0.6875,4.40625 -1.98733,2.91597 -4.22225,1.32231 -4.375,-1.5 -0.102,-1.88469 -3.50625,-1.32951 -3.4375,0.375 0.059,1.46274 0.0555,2.38092 1.28125,4.1875 3.144,4.63405 9.49908,1.8731 10.4375,-2.1875 1.29249,-5.59266 -2.3169,-10.5244 -7.71875,-10.90625 -5.35839,-0.37877 -10.36318,3.2748 -10.9375,8.1875 -0.84136,7.19698 1.76855,14.16223 8.6875,15.84375 10.09638,2.45373 20.30443,-4.20755 27.5,-9.15625 4.56385,3.14402 9.93215,6.5716 14.71875,7.46875 5.7856,1.08438 12.3042,-0.11009 15.7812,-4.5625 1.4037,-1.972 1.927,-4.34678 1.75,-6.59375 -0.6837,-8.69667 -8.842,-10.68452 -15.4374,-9.875 -6.7876,0.8331 -11.8398,4.91573 -16.75005,8.6875 -15.75911,-17.4368 -10.31122,-45.90679 6.09375,-57.8125 8.6886,-6.30563 19.791,-9.56876 30.4687,-9.09375 10.678,-0.47501 21.7802,2.78812 30.4688,9.09375 16.405,11.90571 21.8527,40.3757 6.0938,57.8125 -4.9105,-3.77177 -9.9625,-7.8544 -16.75,-8.6875 -6.5955,-0.80952 -14.7537,1.17833 -15.4376,9.875 -0.1766,2.24697 0.3467,4.62175 1.75,6.59375 3.4773,4.45241 9.9957,5.64688 15.7813,4.5625 4.7866,-0.89715 10.1549,-4.32473 14.7187,-7.46875 7.1957,4.9487 17.4039,11.60998 27.5,9.15625 6.9192,-1.68152 9.5289,-8.64677 8.6876,-15.84375 -0.5743,-4.9127 -5.579,-8.56627 -10.9376,-8.1875 -5.4016,0.38185 -9.0112,5.31359 -7.7187,10.90625 0.9384,4.0606 7.2935,6.82155 10.4375,2.1875 1.2262,-1.80658 1.2224,-2.72476 1.2812,-4.1875 0.069,-1.70451 -3.3355,-2.25969 -3.4374,-0.375 -0.1529,2.82231 -2.3877,4.41597 -4.375,1.5 -0.9564,-1.403 -0.1742,-3.40675 0.6874,-4.40625 0.7725,-0.89563 2.0724,-1.53833 3.4688,-1.65625 3.0643,-0.25877 6.0484,1.5011 6.625,4.8125 0.7502,4.30889 -0.6669,9.94173 -5.7812,11.40625 -8.0536,2.30608 -16.1121,-3.27266 -23.2813,-7.6875 13.017,-15.88148 15.0965,-45.85448 -7,-63.5625 -6.4039,-5.14802 -16.6449,-9.8125 -32.7813,-9.8125 z M 54.35759,10.431508 C 9.18771,14.818758 -0.27892,43.80958 1.54504,78.51654 5.23201,67.95827 14.84982,64.49026 24.13879,70.07904 18.33399,46.95688 23.38036,24.623738 54.35759,10.431508 z m 45.125,0 c 30.977,14.19223 36.0235,36.525372 30.2187,59.647532 9.289,-5.58878 18.907,-2.12077 22.5937,8.4375 1.8242,-34.70696 -7.6428,-63.697782 -52.8124,-68.085032 z m -22.5626,7.460032 c -7.4207,0 -10.0298,5.75083 -8,11.21875 3.1315,8.37522 5.3781,16.74899 6.5938,25.5625 -0.033,0.91278 0.4485,1.092 1.4062,1.125 0.958,-0.033 1.4393,-0.21222 1.4063,-1.125 1.2157,-8.81351 3.4624,-17.18728 6.5937,-25.5625 2.0301,-5.46792 -0.5789,-11.21875 -8,-11.21875 z m -25.875,8.84375 c -2.812,0.0994 -5.5363,0.79631 -6.8437,3.4375 -1.64,3.31312 -0.2818,7.32872 3.0313,8.96875 1.0294,0.50958 2.1445,0.75365 3.2187,0.71875 4.8321,0.087 17.2817,5.41393 20,17.34375 0.5408,1.54744 2.4731,2.20713 2.1875,-1.53125 -0.2541,-8.3041 -5.662,-29.50081 -21.5938,-28.9375 z m 50.2813,0 c -14.8018,0.73901 -19.8788,20.8929 -20.125,28.9375 -0.2856,3.73838 1.6467,3.07869 2.1875,1.53125 2.7183,-11.92982 15.1679,-17.25675 20,-17.34375 1.0742,0.0349 2.1893,-0.20917 3.2188,-0.71875 3.313,-1.64003 4.6712,-5.65563 3.0312,-8.96875 -1.3074,-2.64119 -4.0314,-3.3381 -6.8438,-3.4375 -0.4977,-0.0176 -0.9912,-0.0238 -1.4687,0 z m -53.2187,17.25 c -2.5748,-0.0693 -4.6397,0.32309 -5.7813,0.5 -3.58227,0.55511 -6.69815,2.9595 -6.71875,6.65625 -0.0206,3.69673 2.95951,6.69815 6.65625,6.71875 2.1736,0.0121 4.1354,-0.97748 5.3438,-2.59375 1.7177,-2.29746 10.8207,-3.90819 19.6874,4.875 1.1649,1.15356 3.2084,0.85948 1.3126,-2.375 -6.6385,-11.32398 -14.8361,-13.62868 -20.5,-13.78125 z m 57.625,0 c -5.6641,0.15257 -13.8618,2.45727 -20.5,13.78125 -1.8961,3.23448 0.1478,3.52856 1.3124,2.375 8.867,-8.78319 17.9698,-7.17246 19.6876,-4.875 1.2083,1.61627 3.1701,2.60585 5.3437,2.59375 3.6967,-0.0206 6.6771,-3.02202 6.6563,-6.71875 -0.021,-3.69675 -3.1365,-6.10114 -6.7188,-6.65625 -1.1416,-0.17691 -3.2068,-0.5693 -5.7812,-0.5 z m -28.8126,14.40625 c -1.0434,0 -2.9709,0.30262 -4.3124,1.71875 -1.3415,1.41608 -5.6159,7.22409 -6.1876,8.0625 -1.118,1.6397 -0.613,2.43502 0.2813,3.03125 0.8944,0.59627 1.8556,0.46657 2.75,-0.875 0.8944,-1.34157 3.1609,-4.63202 3.9063,-5.75 0.7453,-1.11797 2.2527,-2.09375 3.5624,-2.09375 1.3098,0 2.786,0.97578 3.5313,2.09375 0.7453,1.11798 3.0431,4.40843 3.9375,5.75 0.8944,1.34157 1.8556,1.47127 2.75,0.875 0.8943,-0.59623 1.3993,-1.39155 0.2812,-3.03125 -0.5716,-0.83841 -4.846,-6.64642 -6.1874,-8.0625 -1.3416,-1.41613 -3.2691,-1.71875 -4.3126,-1.71875 z m -22.1562,0.90625 c -0.4604,-0.007 -0.9269,0.0136 -1.375,0.0312 -3.5847,0.14123 -6.7085,1.02832 -8.25,1.71875 -3.02316,1.35406 -5.21807,4.20573 -4.34375,7.46875 0.87432,3.26301 4.23705,5.21807 7.49995,4.34375 1.919,-0.51412 3.5186,-1.84167 4.0938,-3.59375 0.9491,-2.89127 3.2991,-5.97603 11.5,-4.21875 1.4643,0.31392 3.3589,-1.14307 0.5,-3.03125 -2.9442,-1.9445 -6.4022,-2.6669 -9.625,-2.71875 z m 44.3125,0 c -3.2228,0.0518 -6.6808,0.77425 -9.625,2.71875 -2.8589,1.88818 -0.9643,3.34517 0.5,3.03125 8.2009,-1.75728 10.5509,1.32748 11.5,4.21875 0.5752,1.75208 2.1751,3.07963 4.0937,3.59375 3.263,0.87432 6.6259,-1.08074 7.5,-4.34375 0.8746,-3.26302 -1.3205,-6.11469 -4.3437,-7.46875 -1.5415,-0.69043 -4.6653,-1.57752 -8.25,-1.71875 -0.4481,-0.0177 -0.9146,-0.0387 -1.375,-0.0312 z m -22.1563,9.84375 c -1.7288,0 -3.125,1.39617 -3.125,3.125 0,1.72883 1.3962,3.125 3.125,3.125 1.7289,0 3.125,-1.39617 3.125,-3.125 0,-1.72883 -1.3961,-3.125 -3.125,-3.125 z m -16.7812,7.25 c 4.5357,0.15265 8.3174,2.90351 8.4375,6.8125 0.216,7.02969 -10.1509,7.96679 -13.9375,6.625 -4.1756,-1.4796 -7.6138,-3.42119 -10.875,-5.65625 3.9915,-2.53874 6.4737,-5.05028 11.7188,-7 1.5701,-0.58376 3.1443,-0.83213 4.6562,-0.78125 z m 33.5625,0 c 1.5119,-0.0509 3.0859,0.19749 4.6563,0.78125 5.2449,1.94972 7.7272,4.46126 11.7187,7 -3.2612,2.23506 -6.6994,4.17665 -10.875,5.65625 -3.7866,1.34179 -14.1535,0.40469 -13.9375,-6.625 0.1201,-3.90899 3.9018,-6.65985 8.4375,-6.8125 z m -32.5,3.03125 c -1.3216,0 -6.6616,1.03443 -10.75,3.71875 4.2981,2.99882 9.3236,3.71875 10.75,3.71875 2.0553,0 3.7187,-1.66341 3.7187,-3.71875 0,-2.05533 -1.6634,-3.71875 -3.7187,-3.71875 z m 31.4375,0 c -2.0553,0 -3.7188,1.66342 -3.7188,3.71875 0,2.05534 1.6635,3.71875 3.7188,3.71875 1.4264,0 6.4519,-0.71993 10.75,-3.71875 -4.0884,-2.68432 -9.4284,-3.71875 -10.75,-3.71875 z" id="path2996" style="fill:#5e3900;fill-opacity:1;fill-rule:evenodd;stroke:none" />
            <path d="m -4.6061777,4.0874228 c -2.3071,0 -4.0698,0.50488 -5,1.5 -1.3669003,1.46183 -1.2347003,3.87363 -0.9376003,6.3125002 0.2255,1.84948 2.8017003,10.07679 3.2188003,11.6875 0.3063,1.18281 0.8657,1.84375 2.7188,1.84375 1.853,0 2.4124,-0.66094 2.7187,-1.84375 0.4171,-1.61071 2.9933,-9.83802 3.2187,-11.6875 0.2972,-2.4388702 0.4294,-4.8506702 -0.93739997,-6.3125002 -0.9303,-0.99512 -2.69300003,-1.5 -5.00000003,-1.5 z m -15.0313003,3.6875 c -0.7382,0.004 -1.5286,0.10263 -2.4063,0.3125 -3.5353,0.84549 -4.7229,6.9405702 -1.2812,8.7812502 2.231,1.19312 4.4834,1.92459 6.5312,3.875 2.0481,1.95047 3.4084,4.1223 4.9688,5 1.6127,0.90715 2.4097003,-0.83919 1.8750003,-2.9375 C -11.513478,16.670093 -12.501678,7.7324228 -19.637478,7.7749228 z m 30.0625,0 c -7.1357997,-0.0425 -8.1239997,8.8951702 -9.68749967,15.0312502 -0.5347,2.09831 0.2623,3.84465 1.87499997,2.9375 1.5604,-0.8777 2.9207,-3.04953 4.9687,-5 2.0479,-1.95041 4.3002997,-2.68188 6.5312997,-3.875 3.4417,-1.84068 2.2541,-7.9357602 -1.2813,-8.7812502 -0.8776,-0.20987 -1.668,-0.3085 -2.4062,-0.3125 z M -4.6061777,28.962423 c -2.8634,-0.0494 -7.6434003,1.20036 -6.0626003,4.1875 1.8548003,3.50441 4.5251003,8.63115 4.7188003,11.15625 0.1005,1.31002 0.6801,1.46928 1.3438,1.46927 0.6637,-1e-5 1.2432,-0.15925 1.3437,-1.46927 0.1937,-2.5251 2.86400003,-7.65184 4.7187,-11.15625 1.5809,-2.98714 -3.1991,-4.2369 -6.0624,-4.1875 z" id="path3014" style="fill:#5e3900;fill-opacity:1;stroke:none" />
            <use transform="translate(-163.05254,0)" id="use3029" style="fill:#5e3900;fill-opacity:1" x="0" y="0" width="744.09448" height="1052.3622" xlink:href="#path2996" />
            <use transform="translate(163.05253,2.4540832e-8)" id="use3031" style="fill:#5e3900;fill-opacity:1" x="0" y="0" width="744.09448" height="1052.3622" xlink:href="#path3014" />
            <use transform="translate(163.05253,0)" id="use3033" style="fill:#5e3900;fill-opacity:1" x="0" y="0" width="744.09448" height="1052.3622" xlink:href="#path2996" />
        </g>
        <rect width="326.10501" height="6.7755947" x="3.5449219e-07" y="20" id="rect3039" style="color:#000000;fill:#5e3900;fill-opacity:1;fill-rule:nonzero;stroke:none;stroke-width:1;marker:none;visibility:visible;display:inline;overflow:visible;enable-background:accumulate" />
        <rect width="326.10501" height="5.420476" x="3.5449219e-07" y="131.75623" id="rect3041" style="color:#000000;fill:#5e3900;fill-opacity:1;fill-rule:nonzero;stroke:none;stroke-width:1;marker:none;visibility:visible;display:inline;overflow:visible;enable-background:accumulate" />
    </g>
</svg>
